<?xml version="1.0" encoding="utf-8"?>
<!-- Generator: Adobe Illustrator 26.4.1, SVG Export Plug-In . SVG Version: 6.00 Build 0)  -->
<svg version="1.1" id="图层_1" xmlns="http://www.w3.org/2000/svg" xmlns:xlink="http://www.w3.org/1999/xlink" x="0px" y="0px"
	 viewBox="0 0 440.9 160" style="enable-background:new 0 0 440.9 160;" xml:space="preserve">
<style type="text/css">
	.st0{fill:#F3B919;}
</style>
<g>
	<path class="st0" d="M80,0C35.8,0,0,35.8,0,80s35.8,80,80,80s80-35.8,80-80S124.2,0,80,0z M115.5,24.1l-1.7,9.5
		c-0.1,0.6-0.6,1-1.2,1h-12c-2.8,0-4.9,0.6-6.3,1.7c-1.4,1.1-2.3,3.1-2.8,5.9l-1.3,7.5c-0.1,0.4,0.2,0.7,0.6,0.7h19.4
		c0.4,0,0.7,0.3,0.6,0.7l-1.6,9.1c-0.1,0.6-0.6,1-1.2,1H89.1c-0.6,0-1.1,0.4-1.2,1l-2.1,11.9c0,0.3,0.3,0.5,0.6,0.5h19.4
		c0.4,0,0.7,0.3,0.6,0.7l-1.6,9.1c-0.1,0.6-0.6,1-1.2,1h-18l0,0h-1.3l0,0c-0.3,0-0.5,0.2-0.6,0.4l0,0l0,0l0,0l0,0l0,0l0,0l0,0l0,0
		l0,0l0,0l0,0l0,0v0.1l-5.6,31.8c-1.2,6.7-3.4,11.4-6.7,14.3c-3.2,2.9-8.5,4.3-15.7,4.3H45.1c-0.4,0-0.7-0.3-0.6-0.7l1.7-9.5
		c0.1-0.6,0.6-1,1.2-1h8.7c2.8,0,4.9-0.6,6.3-1.7c1.4-1.2,2.3-3.1,2.8-5.8l5.6-31.8l0,0l0,0l0,0l0,0l0,0c0-0.2-0.2-0.4-0.4-0.4l0,0
		l0,0l0,0l0,0l0,0l0,0l0,0H56.7c-0.4,0-0.7-0.3-0.6-0.7l1.5-9.1c0.1-0.6,0.6-1,1.2-1h13.3h0.1c0.4,0,0.7-0.2,0.8-0.6l0,0l0,0l0,0
		c0.1,0,2.1-12.1,2.1-12.1c0.1-0.4-0.2-0.7-0.6-0.7H61c-0.4,0-0.7-0.3-0.6-0.7l1.5-9.1c0.1-0.6,0.6-1,1.2-1h13.1
		c0.6,0,1.1-0.4,1.2-1l1.3-7.3c1.2-6.7,3.6-11.4,7.2-14.3c3.6-2.9,8.6-4.3,15.2-4.3h13.8C115.3,23.4,115.6,23.8,115.5,24.1z"/>
	<g>
		<path class="st0" d="M207.5,127.3h-19.2V31.6h67v19.2h-47.9v19.2h28.7v19.2h-28.7V127.3z"/>
		<path class="st0" d="M356.9,79.9c0,4.6-0.6,8.9-1.8,13.1s-2.8,8.1-5,11.8c-2.1,3.7-4.7,7-7.7,10.1c-3.1,3.1-6.4,5.6-10,7.8
			c-3.7,2.2-7.6,3.9-11.8,5c-4.2,1.1-8.6,1.8-13.1,1.8s-8.9-0.6-13.1-1.8c-4.2-1.1-8.1-2.9-11.8-5c-3.7-2.2-7-4.7-10.1-7.8
			s-5.6-6.4-7.8-10.1c-2.2-3.7-3.9-7.6-5-11.8c-1.1-4.2-1.8-8.6-1.8-13.1c0-4.6,0.6-8.9,1.8-13.1s2.9-8.1,5-11.8
			c2.2-3.7,4.7-7,7.8-10c3.1-3.1,6.4-5.6,10.1-7.7c3.7-2.1,7.6-3.8,11.8-5c4.2-1.1,8.6-1.8,13.1-1.8s8.9,0.6,13.1,1.8
			c4.2,1.1,8.1,2.8,11.8,5c3.7,2.1,7,4.7,10,7.7c3.1,3.1,5.6,6.4,7.7,10c2.1,3.7,3.8,7.6,5,11.8C356.3,71,356.9,75.4,356.9,79.9z
			 M337.8,79.9c0-4.2-0.8-8.1-2.4-11.8c-1.6-3.7-3.8-6.9-6.5-9.7c-2.7-2.7-6-4.9-9.7-6.5c-3.7-1.6-7.7-2.4-11.8-2.4
			c-4.2,0-8.2,0.8-11.9,2.4c-3.7,1.6-6.9,3.8-9.7,6.5c-2.8,2.7-4.9,6-6.6,9.7c-1.6,3.7-2.4,7.7-2.4,11.8c0,4.2,0.8,8.1,2.4,11.8
			c1.6,3.7,3.8,6.9,6.6,9.6c2.8,2.8,6,4.9,9.7,6.6c3.7,1.6,7.6,2.4,11.9,2.4c4.2,0,8.1-0.8,11.8-2.4c3.7-1.6,6.9-3.8,9.7-6.6
			c2.7-2.8,4.9-6,6.5-9.6C337,88,337.8,84,337.8,79.9z"/>
		<path class="st0" d="M440.9,127.3h-23.2l-18.5-30.9l-18.5,30.9h-23.1l29.4-47.9l-29.4-47.9h23.1l18.5,30.9l18.5-30.9h23.2
			l-29.4,47.9L440.9,127.3z"/>
	</g>
</g>
</svg>
