<?xml version="1.0" encoding="utf-8"?>
<!-- Generator: Adobe Illustrator 25.4.1, SVG Export Plug-In . SVG Version: 6.00 Build 0)  -->
<svg version="1.1" id="图层_1" xmlns="http://www.w3.org/2000/svg" xmlns:xlink="http://www.w3.org/1999/xlink" x="0px" y="0px"
	 viewBox="0 0 512 512" style="enable-background:new 0 0 512 512;" xml:space="preserve">
<style type="text/css">
	.st0{fill:#F7B91C;}
	.st1{fill:#FFFFFF;}
	.st2{fill-rule:evenodd;clip-rule:evenodd;}
	.st3{fill:#FF0060;}
	.st4{fill:#FF6000;}
	.st5{fill:#FFC000;}
	.st6{fill:#DEFF00;}
	.st7{fill:#7EFF00;}
	.st8{fill:#1EFF00;}
	.st9{fill:#00FF42;}
	.st10{fill:#00FFA2;}
	.st11{fill:#00FCFF;}
	.st12{fill:#00A2FF;}
	.st13{fill:#0042FF;}
	.st14{fill:#1E00FF;}
	.st15{fill:#7E00FF;}
	.st16{fill:#DE00FF;}
	.st17{fill:#FF00C0;}
	.st18{fill:#FF0000;}
	.st19{fill:none;stroke:#000000;stroke-width:1;stroke-linejoin:round;stroke-miterlimit:5.774;}
	.st20{fill:none;stroke:#000000;stroke-width:1;stroke-miterlimit:5.774;}
	.st21{fill:#FF91E4;}
	.st22{fill:#FFBA91;}
	.st23{fill:#FF9191;}
	.st24{fill:#FF91BA;}
	.st25{fill:#370070;}
	.st26{fill:#620070;}
	.st27{fill:#700054;}
	.st28{fill:#70002A;}
	.st29{fill:#700000;}
	.st30{fill:#702A00;}
	.st31{fill:#705400;}
	.st32{fill:#627000;}
	.st33{fill:#377000;}
	.st34{fill:#0D7000;}
	.st35{fill:#00701D;}
	.st36{fill:#007047;}
	.st37{fill:#006F70;}
	.st38{fill:#004770;}
	.st39{fill:#001D70;}
	.st40{fill:#0D0070;}
	.st41{fill:#F191FF;}
	.st42{fill:#C791FF;}
	.st43{fill:#9E91FF;}
	.st44{fill:#91ADFF;}
	.st45{fill:#91D7FF;}
	.st46{fill:#91FEFF;}
	.st47{fill:#91FFD7;}
	.st48{fill:#91FFAD;}
	.st49{fill:#9EFF91;}
	.st50{fill:#C7FF91;}
	.st51{fill:#F1FF91;}
	.st52{fill:#FFE491;}
	.st53{fill:none;stroke:#000000;stroke-width:1.5;stroke-linejoin:round;stroke-miterlimit:5.774;}
	.st54{fill:none;stroke:#000000;stroke-width:1.5;stroke-miterlimit:5.774;}
	.st55{fill:#231815;}
	.st56{fill:#1A1A1A;}
	.st57{fill:#009FE8;}
	.st58{fill:#0085D0;}
	.st59{fill:#0068B6;}
	.st60{fill:#00469B;}
	.st61{fill:#1D2087;}
	.st62{fill:#5F1985;}
	.st63{fill:#910782;}
	.st64{fill:#BD0080;}
	.st65{fill:#E3007F;}
	.st66{fill:#E40069;}
	.st67{fill:#E4004F;}
	.st68{fill:#E50032;}
	.st69{fill:#E50012;}
	.st70{fill:#EA6000;}
	.st71{fill:#F29600;}
	.st72{fill:#FBC600;}
	.st73{fill:#FFF000;}
	.st74{fill:#CEDA00;}
	.st75{fill:#8DC21F;}
	.st76{fill:#1EAA39;}
	.st77{fill:#009844;}
	.st78{fill:#009A6B;}
	.st79{fill:#009D95;}
	.st80{fill:#009FC0;}
	.st81{fill:#0086C2;}
	.st82{fill:#0071AE;}
	.st83{fill:#005698;}
	.st84{fill:#003883;}
	.st85{fill:#161573;}
	.st86{fill:#4F0B71;}
	.st87{fill:#7A006E;}
	.st88{fill:#9D006B;}
	.st89{fill:#BD006A;}
	.st90{fill:#BD0057;}
	.st91{fill:#BD0040;}
	.st92{fill:#BD0027;}
	.st93{fill:#BE0008;}
	.st94{fill:#C24E00;}
	.st95{fill:#C87D00;}
	.st96{fill:#CEA400;}
	.st97{fill:#D4C600;}
	.st98{fill:#AAB500;}
	.st99{fill:#75A215;}
	.st100{fill:#138F2E;}
	.st101{fill:#008139;}
	.st102{fill:#008259;}
	.st103{fill:#00837E;}
	.st104{fill:#0085A1;}
	.st105{fill:#006794;}
	.st106{fill:#005586;}
	.st107{fill:#003F76;}
	.st108{fill:#002566;}
	.st109{fill:#080058;}
	.st110{fill:#3B0056;}
	.st111{fill:#5D0053;}
	.st112{fill:#790050;}
	.st113{fill:#90004F;}
	.st114{fill:#90003F;}
	.st115{fill:#8F002C;}
	.st116{fill:#8F0015;}
	.st117{fill:#900000;}
	.st118{fill:#923700;}
	.st119{fill:#975C00;}
	.st120{fill:#9B7C00;}
	.st121{fill:#9F9500;}
	.st122{fill:#808800;}
	.st123{fill:#567B03;}
	.st124{fill:#006E1D;}
	.st125{fill:#006428;}
	.st126{fill:#006442;}
	.st127{fill:#006560;}
	.st128{fill:#00677D;}
	.st129{fill:#004061;}
	.st130{fill:#003257;}
	.st131{fill:#00204C;}
	.st132{fill:#000640;}
	.st133{fill:#000036;}
	.st134{fill:#1F0035;}
	.st135{fill:#390032;}
	.st136{fill:#4E002F;}
	.st137{fill:#5F002D;}
	.st138{fill:#5E001F;}
	.st139{fill:#5E000E;}
	.st140{fill:#5E0000;}
	.st141{fill:#5D0000;}
	.st142{fill:#5F1900;}
	.st143{fill:#613600;}
	.st144{fill:#644C00;}
	.st145{fill:#675E00;}
	.st146{fill:#505600;}
	.st147{fill:#314D00;}
	.st148{fill:#004502;}
	.st149{fill:#003F0D;}
	.st150{fill:#003F25;}
	.st151{fill:#00403B;}
	.st152{fill:#00404F;}
	.st153{fill:#00459B;}
	.st154{fill:#FFFFFF;stroke:#CCCCCC;stroke-width:1.1743;}
	.st155{fill:#003782;}
	.st156{fill:#002465;}
	.st157{fill:#000540;}
	.st158{fill-rule:evenodd;clip-rule:evenodd;fill:#FAFAFA;}
	.st159{fill-rule:evenodd;clip-rule:evenodd;fill:#F5F5F5;}
	.st160{fill-rule:evenodd;clip-rule:evenodd;fill:#EEEEEE;}
	.st161{fill-rule:evenodd;clip-rule:evenodd;fill:#E0E0E0;}
	.st162{fill-rule:evenodd;clip-rule:evenodd;fill:#BDBDBD;}
	.st163{fill-rule:evenodd;clip-rule:evenodd;fill:#9E9E9E;}
	.st164{fill-rule:evenodd;clip-rule:evenodd;fill:#757575;}
	.st165{fill-rule:evenodd;clip-rule:evenodd;fill:#616161;}
	.st166{fill-rule:evenodd;clip-rule:evenodd;fill:#424242;}
	.st167{fill-rule:evenodd;clip-rule:evenodd;fill:#212121;}
	.st168{fill:#1F1C1D;}
	.st169{fill:#504E4E;}
	.st170{fill:#373536;}
	.st171{fill:#686767;}
	.st172{fill:#2B2929;}
	.st173{fill:#747474;}
	.st174{fill:#444242;}
	.st175{fill:#5C5B5B;}
	.st176{fill:#393536;}
	.st177{fill:#9C9A9B;}
	.st178{fill:#6A6868;}
	.st179{fill:#CDCDCD;}
	.st180{fill:#514F4F;}
	.st181{fill:#E6E6E6;}
	.st182{fill:#838182;}
	.st183{fill:#B5B3B4;}
	.st184{fill:#060203;}
	.st185{fill:#030102;}
	.st186{fill:#040202;}
	.st187{fill:#010101;}
	.st188{fill:#040203;}
	.st189{fill:#010000;}
	.st190{fill:#020101;}
	.st191{fill:#070304;}
	.st192{fill:#171717;}
	.st193{fill:#DF5B23;}
	.st194{fill:#EB5C20;}
	.st195{fill:#1E5D91;}
	.st196{fill:#E29227;}
	.st197{fill:#1C9965;}
	.st198{fill:#70BA33;}
	.st199{fill:#C6224E;}
	.st200{fill:#0E0304;}
	.st201{fill:#29292C;}
	.st202{fill:#B5B5B6;}
	.st203{fill:#2E3032;}
	.st204{fill:#1A1A1B;}
	.st205{fill:#757579;}
	.st206{fill:#2F2833;}
	.st207{fill:#403944;}
	.st208{fill:#CBCFD7;}
</style>
<g>
	<path class="st5" d="M512,49.17c-0.03,0.12-0.07,0.24-0.11,0.35c-24.26,80.72-58.17,159.93-102.15,236.09
		c-43.97,76.16-95.61,145.14-153.39,206.51c-0.12,0.14-0.25,0.27-0.38,0.4c-57.91-61.45-109.65-130.54-153.71-206.84
		C58.22,209.39,24.27,130.04,0,49.17c0.21-0.05,0.42-0.1,0.63-0.15C82.61,29.7,168.11,19.47,256,19.47S429.39,29.7,511.37,49.02
		C511.58,49.07,511.79,49.12,512,49.17z"/>
	<path class="st192" d="M158.23,349.86l4.78-26.16c0.29-1.57,1.66-2.72,3.26-2.72h24.09c7.73,0,13.54-1.61,17.4-4.81
		c3.86-3.21,6.47-8.57,7.79-16.08l27.17-153.87c0.18-1.02-0.6-1.95-1.63-1.95h-37.51c-1.02,0-1.8-0.92-1.64-1.93l4.19-25.14
		c0.27-1.6,1.65-2.77,3.27-2.77h36.18c1.61,0,2.99-1.16,3.27-2.75l3.5-20.13c3.32-18.34,9.89-31.49,19.72-39.45
		c9.83-7.96,23.81-11.94,41.94-11.94h38.13c1.03,0,1.82,0.94,1.63,1.96l-4.78,26.16c-0.29,1.57-1.66,2.72-3.26,2.72h-33.04
		c-7.74,0-13.54,1.55-17.4,4.64c-3.87,3.1-6.46,8.51-7.79,16.24l-3.63,20.6c-0.18,1.01,0.6,1.95,1.63,1.95h53.4
		c1.03,0,1.81,0.93,1.63,1.95l-4.47,25.15c-0.28,1.58-1.66,2.73-3.26,2.73h-51.79c-1.61,0-2.99,1.16-3.26,2.74L250.7,300.43
		c-3.32,18.34-9.45,31.49-18.4,39.45c-8.95,7.96-23.37,11.94-43.26,11.94h-29.17C158.82,351.82,158.04,350.88,158.23,349.86z"/>
</g>
</svg>
