<?xml version="1.0" encoding="utf-8"?>
<!-- Generator: Adobe Illustrator 25.4.1, SVG Export Plug-In . SVG Version: 6.00 Build 0)  -->
<svg version="1.1" id="图层_1" xmlns="http://www.w3.org/2000/svg" xmlns:xlink="http://www.w3.org/1999/xlink" x="0px" y="0px"
	 viewBox="0 0 487 160" style="enable-background:new 0 0 487 160;" xml:space="preserve">
<style type="text/css">
	.st0{fill:#FFC000;}
</style>
<g>
	<path class="st0" d="M80.1,0c-44.2,0-80,35.8-80,80s35.8,80,80,80s80-35.8,80-80S124.2,0,80.1,0z M115.6,24.1l-1.7,9.5
		c-0.1,0.6-0.6,1-1.2,1h-12c-2.8,0-4.9,0.6-6.3,1.7c-1.4,1.1-2.3,3.1-2.8,5.9l-1.3,7.5c-0.1,0.4,0.2,0.7,0.6,0.7h19.4
		c0.4,0,0.7,0.3,0.6,0.7l-1.6,9.1c-0.1,0.6-0.6,1-1.2,1H89.2c-0.6,0-1.1,0.4-1.2,1l-2.1,11.9c0,0.3,0.3,0.5,0.6,0.5h19.4
		c0.4,0,0.7,0.3,0.6,0.7l-1.6,9.1c-0.1,0.6-0.6,1-1.2,1h-18l0,0h-1.3l0,0c-0.3,0-0.5,0.2-0.6,0.4l0,0l0,0l0,0l0,0l0,0l0,0l0,0l0,0
		l0,0l0,0l0,0l0,0v0.1l-5.6,31.8c-1.2,6.7-3.4,11.4-6.7,14.3c-3.2,2.9-8.5,4.3-15.7,4.3H45.2c-0.4,0-0.7-0.3-0.6-0.7l1.7-9.5
		c0.1-0.6,0.6-1,1.2-1h8.7c2.8,0,4.9-0.6,6.3-1.7c1.4-1.2,2.3-3.1,2.8-5.8l5.6-31.8l0,0l0,0l0,0l0,0l0,0c0-0.2-0.2-0.4-0.4-0.4l0,0
		l0,0l0,0l0,0l0,0l0,0l0,0H56.8c-0.4,0-0.7-0.3-0.6-0.7l1.5-9.1c0.1-0.6,0.6-1,1.2-1h13.3h0.1c0.4,0,0.7-0.2,0.8-0.6l0,0l0,0l0,0
		c0.1,0,2.1-12.1,2.1-12.1c0.1-0.4-0.2-0.7-0.6-0.7H61.1c-0.4,0-0.7-0.3-0.6-0.7l1.5-9.1c0.1-0.6,0.6-1,1.2-1h13.1
		c0.6,0,1.1-0.4,1.2-1l1.3-7.3c1.2-6.7,3.6-11.4,7.2-14.3c3.6-2.9,8.6-4.3,15.2-4.3h13.8C115.4,23.4,115.7,23.8,115.6,24.1z"/>
	<g>
		<path class="st0" d="M220.2,134.2h-21.9V24.8H275v21.9h-54.7v21.9h32.8v21.9h-32.8V134.2z"/>
		<path class="st0" d="M391,80c0,5.2-0.7,10.2-2,15s-3.2,9.3-5.7,13.5c-2.4,4.2-5.4,8-8.8,11.5c-3.5,3.5-7.3,6.4-11.4,8.9
			c-4.2,2.5-8.7,4.4-13.5,5.7c-4.8,1.3-9.8,2-15,2s-10.2-0.7-15-2s-9.3-3.3-13.5-5.7c-4.2-2.5-8-5.4-11.5-8.9s-6.4-7.3-8.9-11.5
			s-4.4-8.7-5.7-13.5s-2-9.8-2-15c0-5.2,0.7-10.2,2-15s3.3-9.3,5.7-13.5c2.5-4.2,5.4-8,8.9-11.4c3.5-3.5,7.3-6.4,11.5-8.8
			c4.2-2.4,8.7-4.3,13.5-5.7c4.8-1.3,9.8-2,15-2s10.2,0.7,15,2s9.3,3.2,13.5,5.7c4.2,2.4,8,5.4,11.4,8.8c3.5,3.5,6.4,7.3,8.8,11.4
			c2.4,4.2,4.3,8.7,5.7,13.5C390.2,69.8,391,74.8,391,80z M369.2,80c0-4.8-0.9-9.3-2.7-13.5s-4.3-7.9-7.4-11.1
			c-3.1-3.1-6.8-5.6-11.1-7.4c-4.2-1.8-8.8-2.7-13.5-2.7c-4.8,0-9.4,0.9-13.6,2.7s-7.9,4.3-11.1,7.4c-3.2,3.1-5.6,6.8-7.5,11.1
			c-1.8,4.2-2.7,8.8-2.7,13.5c0,4.8,0.9,9.3,2.7,13.5c1.8,4.2,4.3,7.9,7.5,11c3.2,3.2,6.8,5.6,11.1,7.5c4.2,1.8,8.7,2.7,13.6,2.7
			c4.8,0,9.3-0.9,13.5-2.7c4.2-1.8,7.9-4.3,11.1-7.5c3.1-3.2,5.6-6.8,7.4-11C368.2,89.2,369.2,84.7,369.2,80z"/>
		<path class="st0" d="M487,134.2h-26.5l-21.1-35.3l-21.1,35.3h-26.4l33.6-54.7l-33.6-54.7h26.4l21.1,35.3l21.1-35.3H487l-33.6,54.7
			L487,134.2z"/>
	</g>
</g>
</svg>
