<svg viewBox="0 0 185.5 185.5">
	<g class="lvl-1">
		<path class="love" d="M92.75,47.34A57.49,57.49,0,0,1,147,38.48a57.51,57.51,0,0,0-108.54,0,57.49,57.49,0,0,1,54.27,8.86Z" />
		<text x="50%" y="11%" class="small">What you</text>
		<text x="50%" y="14%">Love</text>
		<path class="needs" d="M185.5,92.75A57.53,57.53,0,0,0,147,38.48a57.49,57.49,0,0,1-8.86,54.27A57.49,57.49,0,0,1,147,147,57.53,57.53,0,0,0,185.5,92.75Z" />
		<text x="88%" y="48.5%" class="small">What the world</text>
		<text x="88%" y="51.5%">Needs</text>
		<path class="money" d="M92.75,138.16A57.49,57.49,0,0,1,38.48,147,57.51,57.51,0,0,0,147,147a57.49,57.49,0,0,1-54.27-8.86Z" />
		<text x="50%" y="86%" class="small">What you can be</text>
		<text x="50%" y="89%">paid for</text>
		<path class="skills" d="M47.34,92.75a57.49,57.49,0,0,1-8.86-54.27,57.51,57.51,0,0,0,0,108.54,57.49,57.49,0,0,1,8.86-54.27Z" />
		<text x="12%" y="48.5%" class="small">What you're</text>
		<text x="12%" y="51.5%">good at</text>
	</g>

	<g class="lvl-2">
		<path class="mission" d="M92.75,47.34a57.61,57.61,0,0,1,19,26.39,57.61,57.61,0,0,1,26.39,19A57.49,57.49,0,0,0,147,38.48a57.49,57.49,0,0,0-54.27,8.86Z" />
		<text x="69%" y="31%">Mission</text>
		<path class="vocation" d="M138.16,92.75a57.61,57.61,0,0,1-26.39,19,57.61,57.61,0,0,1-19,26.39A57.49,57.49,0,0,0,147,147a57.49,57.49,0,0,0-8.86-54.27Z" />
		<text x="69%" y="69%">Vocation</text>
		<path class="profession" d="M92.75,138.16a57.61,57.61,0,0,1-19-26.39,57.61,57.61,0,0,1-26.39-19A57.49,57.49,0,0,0,38.48,147a57.49,57.49,0,0,0,54.27-8.86Z" />
		<text x="31%" y="69%">Profession</text>
		<path class="passion" d="M47.34,92.75a57.61,57.61,0,0,1,26.39-19,57.61,57.61,0,0,1,19-26.39,57.49,57.49,0,0,0-54.27-8.86,57.49,57.49,0,0,0,8.86,54.27Z" />
		<text x="31%" y="31%">Passion</text>
	</g>

	<g class="lvl-3">
		<path class="delight" d="M111.77,73.73a57.61,57.61,0,0,0-19-26.39,57.61,57.61,0,0,0-19,26.39,57.62,57.62,0,0,1,38,0Z">
			<title>Delight &amp; fullness, but no wealth</title>
		</path>
		<text x="50%" y="33%">click</text>
		<path class="excitement" d="M111.77,73.73a57.62,57.62,0,0,1,0,38,57.61,57.61,0,0,0,26.39-19A57.61,57.61,0,0,0,111.77,73.73Z">
			<title>Excitement &amp; complacency, but sense of uncertainty</title>
		</path>
		<text x="67%" y="50%">click</text>
		<path class="comfort" d="M73.73,111.77a57.61,57.61,0,0,0,19,26.39,57.61,57.61,0,0,0,19-26.39,57.62,57.62,0,0,1-38,0Z">
			<title>Comfortable, but feeling of emptiness</title>
		</path>
		<text x="50%" y="67%">click</text>
		<path class="satisfaction" d="M73.73,73.73a57.61,57.61,0,0,0-26.39,19,57.61,57.61,0,0,0,26.39,19,57.62,57.62,0,0,1,0-38Z">
			<title>Satisfaction, but feeling of uselessness</title>
		</path>
		<text x="33%" y="50%">click</text>
	</g>

	<g class="lvl-4">
		<path class="ikigai" d="M111.77,73.73a57.62,57.62,0,0,0-38,0,57.62,57.62,0,0,0,0,38,57.62,57.62,0,0,0,38,0,57.62,57.62,0,0,0,0-38Z" />
		<text x="50%" y="50%">Ikigai</text>
	</g>
</svg>