<?xml version="1.0" encoding="UTF-8"?>
<svg id="_图层_1" data-name="图层 1" xmlns="http://www.w3.org/2000/svg" viewBox="0 0 512 512">
  <defs>
    <style>
      .cls-1 {
        fill: #f3f3f3;
      }

      .cls-2 {
        fill: #f7f7f7;
      }

      .cls-3 {
        fill: #f2f2f2;
      }

      .cls-4 {
        fill: #f8f8f8;
      }

      .cls-5 {
        fill: #f0f0f0;
      }

      .cls-6 {
        fill: #fcfcfc;
      }

      .cls-7 {
        fill: #e7e7e7;
      }

      .cls-8 {
        fill: #e3e3e3;
      }

      .cls-9 {
        fill: #ededed;
      }

      .cls-10 {
        fill: #e8e8e8;
      }

      .cls-11 {
        fill: #fefefe;
      }

      .cls-12 {
        fill: #989898;
      }

      .cls-13 {
        fill: #9c9c9c;
      }

      .cls-14 {
        fill: #a0a0a0;
      }

      .cls-15 {
        fill: #b4b4b4;
      }

      .cls-16 {
        fill: #b7b7b7;
      }

      .cls-17 {
        fill: #c1c1c1;
      }

      .cls-18 {
        fill: #b6b6b6;
      }

      .cls-19 {
        fill: #bababa;
      }

      .cls-20 {
        fill: #8e8e8e;
      }

      .cls-21 {
        fill: #939393;
      }

      .cls-22 {
        fill: #a9a9a9;
      }

      .cls-23 {
        fill: #bcbcbc;
      }

      .cls-24 {
        fill: #d8d8d8;
      }

      .cls-25 {
        fill: #a5a5a5;
      }

      .cls-26 {
        fill: #b2b2b2;
      }

      .cls-27 {
        fill: #aeaeae;
      }

      .cls-28 {
        fill: #bbb;
      }

      .cls-29 {
        fill: #bfbfbf;
      }

      .cls-30 {
        fill: #ababab;
      }

      .cls-31 {
        fill: #ccc;
      }

      .cls-32 {
        fill: #cacaca;
      }

      .cls-33 {
        fill: #cfcfcf;
      }

      .cls-34 {
        fill: #ddd;
      }

      .cls-35 {
        fill: #cbcbcb;
      }

      .cls-36 {
        fill: #c4c4c4;
      }

      .cls-37 {
        fill: #d4d4d4;
      }

      .cls-38 {
        fill: #d9d9d9;
      }

      .cls-39 {
        fill: #c6c6c6;
      }

      .cls-40 {
        fill: #e1e1e1;
      }

      .cls-41 {
        fill: #dfdfdf;
      }

      .cls-42 {
        fill: #a3a3a3;
      }

      .cls-43 {
        fill: #949494;
      }

      .cls-44 {
        fill: #9a9a9a;
      }

      .cls-45 {
        fill: #888;
      }

      .cls-46 {
        fill: #838383;
      }
    </style>
  </defs>
  <path class="cls-5" d="M374.19,505.65c-57.44-.02-114.91,1.05-172.31-.44-36.62-.95-73.22-3.6-109.88-4.74-16.16-.5-26.45-11.02-28.2-28.87-2.36-24.14-5.8-48.13-5.55-72.6,.7-67.43,.19-134.88,.3-202.32,0-4.78-1.71-10,2.16-14.26,5.3,4.96,3.7,11.52,3.71,17.5,.13,61.02,.09,122.04,.09,183.02-.71,11.59,1.47,23.4-2.14,32.93,0-.39,.37-2.46,3.33-2.62,1.14,.82,1.95,1.86,2.49,3.15,1.88,5.44,1,11.09,1.3,16.64,.09,5.33-.07,10.66-.45,15.97-1.1,3.18-1.63,6.52-2.09,8.18,.73-4.19,3.48-7.4,9.07-2.84,5.84,4.76,8.84,1.19,11.91-3.19,2.86-4.1,5.55-8.48,6.68-13.24,4.28-18,15.38-32.88,22.29-49.67,3.22-7.82,9.06-13.9,18.12-15.46,9.17-1.58,16.37-7.75,25.12-10.45,20.8-6.41,34.6,1.06,40.09,22.27,5.84,22.56,1.17,44.47-5.88,65.63-2.9,8.72-5.97,16.71-4.99,26.03,.46,4.39,.49,9.27-4.04,12.33-.99,.68-2.05,1.21-3.18,1.61-7.4,1.54-15.06,.98-22.45,2.65-1.69,.41-3.4,.66-5.13,.79-9.32-.12-18.6,.7-27.73,1.41,1.23,1.25,2.55-.11,3.77,.36,4.33-.19,8.57-.96,12.87-.65,16.39-.34,32.74,.56,49.12,.7,12.77-1.07,25.32-1.29,38.05,1.96,11.57,2.96,23.77,2.16,35.73,2.26,34.24,.3,68.48-.58,102.72,.44,1.5,.26,2.88,.81,4.17,1.63,1.38,1.04,1.69,2.33,.92,3.88Z"/>
  <path class="cls-31" d="M61,386.33c-.1-67.97-.2-135.94-.3-203.91,1.68-4.99,3.36-9.99,5.05-14.98,3.21,2.76,3.2,6.47,3.04,10.24-.09,1.5-.35,2.96-.71,4.41-1.82,5.65-1.02,11.48-1.13,17.23-1.03,55.35,.96,110.65,2.52,165.94,.37,6.81-.17,13.63-.15,20.43-.65,5.37-1.86,11.04,6.18,11.89,.67,.63,1.45,1.15,2.32,1.4,7.05-9.66,9.09-21.17,12.33-32.16,5.41-18.31,13.17-33.52,34.98-36.99,12-1.91,21.64-11.63,34.89-11.77,12.21-.12,23.01,1.67,31.31,11.42,1.33,1.57,2.79,3.15,4.53,4.22,26.92,16.69,33.77,42.47,35.32,72.16,1.16,22.12,.69,44.65,6.85,66.36,1.86,6.56,3.58,13.12,12.5,12.62,3.93,.16,7.86,.06,11.77,.54,1.37,.13,2.7,.41,4.02,.76,10.47,2.46,21.12,.46,31.65,1.34,5.52,.46,11.12,1.05,9.43,9.08-.61,1.52-1.25,3.8-2.82,3.78-16.75-.22-33.74,3.2-50.13-2.93-2.32-.87-4.54-2.01-6.93-2.72-21.07-6.24-26.91-13.6-28.01-35.65-.91-18.18-2.72-36.36-2.31-54.56,.67-29.78-14.74-49.71-38.21-65.18-6.65-4.38-13.52-2.29-20.46-1.41-4.13,.52-8.11,1.38-12.06,2.76-48.59,17.04-32.76,8.41-52.92,54.08-.83,1.89-1.2,3.96-1.8,5.94-5.88,19.57-7.45,20.5-25.76,15.45-.04-.77-.07-1.55-.09-2.33-7.45-8.12-.82-18.75-4.89-27.48Z"/>
  <path class="cls-3" d="M299.7,13.24c3.01-3.36,7.09-2.88,10.37-1.6,32.8,12.73,62.26,30.68,86.51,56.55-2.4,3.81-2.74,3.76-9.09-1.1-21.92-23.27-51.36-29.57-80.79-35.74-3.82,1.86-2.88,5.3-1.32,7.37,7.3,9.65,7.98,21.55,11.56,32.43,3.74,11.35,10.06,19.33,23.01,19.63,3.25,.08,3.79,2.6,4.9,4.67,6.75,12.56,19.97,15.58,31.33,21.36,2.9,1.47,3.09-1.84,4.69-2.66,4.24-2.17,9.15-3.76,13.02-1.14,6.21,4.22,10.3,3.04,15.92-1.43,11.41-9.07,16.11-7.22,21.71,6.97,.61,1.56,1.27,3.03,2.33,4.31,9.18,20.57,16.35,41.61,14.9,64.64,2.4,10.4,.94,20.92,.9,31.39-8.68,.59-6.53-6.33-6.59-10.56-.19-14.52-1.05-28.9-4.63-43-1.43-8.37-1.49-17.09-5.91-24.77-1.04-4.19-.97-8.79-4.58-11.92-8.76,6.99-19.49,8.91-29.85,9.65-26.1,1.86-50.14-6.41-73.14-17.93-6.08-3.05-8.49-8.67-11.65-14.8-9.95-19.26-10.62-41.61-22.05-60.36-4.06-6.67-4.48-15.92,1.73-23.27,3.54-1.74,7.26-1.66,11.02-1.17,4.74,1.1,9.53,1.94,14.37,2.51,5.24,1.26,9.82,4.08,15.65,6.72-4.61-3.04-8.89-4.32-12.76-6.39-5.68-1.74-11.38-3.48-16.45-6.72-1.52-.56-2.96-1.27-4.25-2.26-.3-.45-.59-.9-.88-1.36Z"/>
  <path class="cls-4" d="M389.09,65.72c2.79-.06,3.74,5.45,7.49,2.46,16.51,15.44,31.65,31.81,37.28,54.67-1.79-1-4.39-1.54-5.26-3.06-9.01-15.67-9.99-15.73-21.49-.59-2.62,3.44-5.05,2.47-8.12,.06-6.05-4.75-12.45-10.12-17.89,1.12-.76,1.57-3.6,1.76-5.51,.06-1.54-1.37-2.99-3.56-4.74-3.85-13.81-2.32-23.96-8.53-29.49-22.36-1.86-4.65,.58,7.42-5.53,2.82-10.81-8.14-20.85-16.01-23.15-30.63-1.52-9.63-3.97-19.05-10.79-27-1.13-1.32-4.72-8.3,.63-11.96,.26-.18,.84-.04,1.18,.12,.35,.17,.6,.55,.89,.84,9.55,6.23,18.38,13.43,29.46,17.42,7.62,2.74,13.85,9.6,14.31,17.57,.62,10.59,8.11,14.9,14.33,20.57,7.72,7.04,17.29,7.06,26.99,5.69,3.69-.52,7.42-.27,12.15-.3-1.7-5.42-5.84-8.29-8.8-11.99-2.69-3.35-7.33-6.2-3.93-11.66Z"/>
  <path class="cls-44" d="M65.74,179.99c.12-.81,.27-1.62,.45-2.42,3.55-2.54,3.73-5.87,2.9-9.87-1.45-6.98-.63-13.92,1.57-20.7,7.14-36.15,26.91-64.82,53.38-89.37,7.47-6.93,15.79-12.96,23.72-19.4,5.2-1.57,9-6.14,14.63-6.79,2.65,.33,4.68,1.63,6.08,3.91,.86,2.62-.05,4.89-1.37,7.09-5.84,7.08-16.33,7.96-21.44,16.06-47.43,37.28-68.15,86.61-66.44,146.24,.38,13.2,.08,26.43,.15,39.66,.2,16.57,.21,33.12,.17,49.68,0,4.78,.07,9.59-3.95,13.15-7.25-2.73-5.67-9.2-5.77-14.58-.36-20.82,.02-41.64,.08-62.44-.03-9.75,.03-19.54,.2-29.32,.08-4.72-.39-8.89-5.03-11.39-.28-3.21-.93-6.44,.68-9.51Z"/>
  <path class="cls-1" d="M448.73,219.88c.01-10.8,.02-21.59,.04-32.39,4.45,13.77,4.43,28.33,4.56,42.3,.79,86.35,.42,172.7,.38,259.06,0,14.56-2.13,16.75-16.3,16.8-21.07,.08-42.15,0-63.22,0,0-.79,.01-1.58,.01-2.37,3.84-4.27,9.04-3.49,13.9-3.55,14.05-.18,28.1,.02,42.14-.09,13.9-.11,14.91-1.02,14.97-14.67,.12-28.92,.07-57.84,0-86.77,.08-53.56-.05-107.11,.1-160.65,.02-6.02-1.42-12.5,3.41-17.67Z"/>
  <path class="cls-32" d="M200.1,12.25c.86-.46,1.72-.91,2.58-1.37,3.69-2.79,8.61-2.42,12.46-4.81,19.27,0,38.54,.23,57.8-.07,9.74-.15,17.91,4.57,26.75,7.24,0,0-.31,.49-.31,.49-3.23,8.55-10.12,4.75-15.9,4.76-8.76-2.21-16.65-7.88-26.29-6.59-2.66,.14-5.31,.12-7.96,.04-14.43-1.41-28.29,2.59-42.39,4.39-1.43-.07-2.79-.39-4.1-.94-1.33-.67-2.21-1.72-2.64-3.14Z"/>
  <path class="cls-30" d="M200.1,12.25c.87,.51,1.73,1.03,2.6,1.54,2.78,5.38-1.54,6.3-4.92,7.37-3.09,.98-6.4,1.27-9.05,3.42-8.88,2.12-17.02,6.46-25.82,8.83-5.55,.04-8.98,6.75-15.16,4.83,14.84-13.91,33.89-19.36,52.35-25.99Z"/>
  <path class="cls-13" d="M70.66,147c.72,8.06-.4,16.2,2.39,24.18,2.07,5.92-.83,8.27-6.87,6.38-.14-3.38-.29-6.75-.43-10.13,.56-7.07-.86-14.62,4.9-20.44Z"/>
  <path class="cls-2" d="M215.15,6.07c-3.38,3.6-7.44,5.44-12.46,4.81,2.6-5.63,7.67-4.85,12.46-4.81Z"/>
  <path class="cls-24" d="M65.98,416.14c2.96-.21,5.6-6.66,8.2-2.13,6.87,11.99,8.56,.88,9.92-2.41,5.95-14.45,11.57-29.08,16.36-43.95,3.57-11.07,9.28-19,21.14-21.68,14.55-3.28,27.56-11.74,42.89-12.57,7.53-.41,14.29-.43,20.09,5.97,4.6,5.09,10.93,8.57,16.03,13.26,18.46,16.98,19.33,39.55,20.2,62.48,.82,21.51-1.19,43.42,6.63,64.25,1.3,3.47,1.95,8.21,6.14,8.56,14.21,1.19,25.83,12.48,40.77,10.23,10.1-1.52,20.15,3.55,30.22,.03,6.15-4.93,13.12-3.57,20.04-2.65,11.28,3.14,22.84,.87,34.22,1.79,4.82,.39,11.17-1.8,12.86,5.82-45.08-.24-90.23,.87-135.2-1.48-15.27-.8-30.74-3.19-46.25-3.52,.95-7.08,7.32-6.92,11.99-8.42,5.81-1.87,7.41-4.84,6.83-10.99-2.02-21.35-2.7-42.67-.55-64.19,1.34-13.44-.4-27.3-5.71-40.06-8.7-20.89-25.19-28.88-47.14-23.14-8.79,2.3-17.15,6.2-26.01,8.16-14.55,3.22-18.59,15.43-22.96,26.75-5.22,13.52-12.21,26.21-17.36,39.75-4.49,11.79-6.93,12.15-17.98,6.04-.78-.43-3.06,2.53-5.39,1.51,0-5.8,0-11.6,0-17.4Z"/>
  <path class="cls-4" d="M117.35,488.47c-9.82-2.43-20.04,.37-30.35-.85-4.67-.55-6.22-3.33-6.16-5,.12-3.36,4.24-2.75,6.68-2.95,2.25-.18,4.61-.35,7.11,.92,4.44,2.27,7.09,4.24,5.08-4.54-2.07-9.05,4.38-18.15,10.08-25.89,3.66-4.96,5.82-10.2,7.8-16.12,3.09-9.21,9.72-17.03,13.03-26.51,3.31-9.47,13.08-12.84,20.54-18.02,3.06-2.12,3.76-5.72,8.34-7.32,17.6-6.17,28.9,2.15,28.74,27.52-.08,13.23-9.5,24.12-13.91,36.42-4.14,11.54-12.52,21.42-13.92,34.28-.14,1.27-1.56,3.66-5.02,4.92-12.56,4.59-25.21,1.82-38.04,3.12Z"/>
  <path class="cls-40" d="M65.98,433.54c5.89-5.79,8.96-1.83,10.91,5.09,12.39-13.45,16.11-29.54,22.6-43.87,4.14-9.14,10.12-17.77,11.78-28.24,1.03-6.5,8.2-5.65,12.94-7.4,11.09-4.1,21.96-9.42,33.43-11.76,30.3-6.19,47.67,12.26,52.39,41.43,4.19,25.91-3.86,52.52,1.56,77.85,4.49,21-5.28,27.1-21.33,31.51-15.73,0-31.46,0-47.19,0,.7-8.2,9.71-2.5,12.37-7.41,1.66,0,3.31,0,4.97,0,7.56,.11,14.99-.99,22.37-2.49v-.02c6.98-.69,9.56-4.88,10.35-11.55,2.65-22.52,6.65-44.88,9.01-67.4,1.41-13.48-1.16-27.18-8.78-39.13-5.29-8.3-13.66-13.97-22.8-11.72-17.47,4.29-35.58,8-50,20.29-2.55,2.18-5.39,4.26-6.22,7.53-3.36,13.33-11.66,24.81-14.94,37.94-4.51,18.06-12.31,30.23-33.41,26.72,0-5.79-.02-11.58-.02-17.37Z"/>
  <path class="cls-7" d="M66.01,450.91c3-1.89,3.14-7.09,10.14-3.31,7.97,4.3,14.79-4.5,16.18-11.21,3.72-17.92,14.28-32.98,18.88-50.55,3-11.47,15.5-15.55,25.4-20.49,6.64-3.32,14.27-4.59,21.27-7.28,27.81-10.67,41.65,9.41,44.79,30.32,4.58,30.4-5.22,59.69-6.6,89.57-.53,11.54-4.87,12-13.29,10.27,1.21-1.56,3.63-3.29,3.45-4.66-3.47-25.67,12.98-47.5,13.71-72.41,.44-15.29-1.43-29.61-11.09-41.95-7.06-9.02-21.87-9.37-35.92-1.1-1.75,1.03-3.05,3.7-4.73,3.86-32.41,3.01-33.74,32.82-45.46,53.25-5.85,10.19-7.1,22.67-15.5,32.03-4.36,4.86-7.33,6.33-11.51,.67-5.77-7.83-6.99-1.11-9.72,2.81v-9.81Z"/>
  <path class="cls-31" d="M371.7,503.14c-7.85-5.08-16.59-1.33-24.83-2.49-7.45-1.05-15.4,2.46-22.43-2.44,6.79-5.82,14.94-3.05,22.57-3.6,18.23-.36,36.47-.27,54.69,.03,5.36,.14,10.77-.28,16.07,.9,8.21-.31,17.13,5.46,24.42-2.84,.87-16.37,.51-32.71,.45-49.05-.12-5.06-.14-10.11,.1-15.16,.73-9.55-1.97-19.36,2.12-28.66,.97-1.45,2.25-1.79,3.82-1.03,.04,30.52-.17,61.05,.28,91.56,.14,9.61-3.17,13.28-12.9,13.05-20.61-.49-41.24-.15-61.87-.15-.83-.04-1.66-.09-2.5-.13Z"/>
  <path class="cls-10" d="M155.44,490.73c-.63,8.3-9.79,2.38-12.37,7.41-5.04,0-10.07,.01-15.11,.02-2.4-3.43-9.15,1.87-9.89-4.91,12.46-.83,24.79-3.58,37.37-2.52Z"/>
  <path class="cls-24" d="M61,386.33c5.35,8.5,.2,18.86,4.89,27.48-4.57,2.92-.58,8.57-4.89,13.44v-40.91Z"/>
  <path class="cls-8" d="M182.79,488.25c-7.42,1.15-14.18,8.2-22.37,2.49,7.17-3.36,14.84-2.32,22.37-2.49Z"/>
  <path class="cls-11" d="M111.88,495.7c-.31,2.15-1.99,2.26-3.59,2.25-1.58-.01-3.52-.06-3.51-2.25,0-2.17,1.94-2.23,3.52-2.24,1.6-.01,3.3,.05,3.58,2.24Z"/>
  <path class="cls-11" d="M118.07,493.25c2.11,4.02,7.78,.88,9.89,4.91-2.87-2.5-10.86,5.31-9.89-4.91Z"/>
  <path class="cls-17" d="M262.33,488.23c-4.14,0-8.28,0-12.42,0-9.32-7.38-13.62-17.96-14.51-28.9-1.81-22.17-3.54-44.38-5.7-66.49-2.29-23.37-10.13-44.45-32.3-57.71-9.29-5.56-15.63-15.15-27.78-17.17-19.26-3.19-59.74,12.7-69.93,28.67-7.02,11-7.95,24.1-12.78,35.82-2.75,6.69-2.93,15.15-11.01,18.81h0c-1.9-5.7-5.46-11.07-3.35-17.76,.69-1.22-1.71-.63-1.54,0,1.11,4.09-.81,5.96-5.05,5.32,0-7.46,0-14.92,0-22.38,2.9-2.25,1.61-8.84,7.88-7.59,2.37,2.51,2.55,5.93,3.72,8.87,8.84-3.78,6.02-12.72,8.63-19.23,.39-1.14,.95-2.17,1.65-3.15,11.89-25.18,35.92-31.75,59.61-38.66,7.16-2.09,15.22-3.96,22.01-1.19,23.26,9.5,43.62,20.54,58.1,44.66,15.72,26.19,13.7,53.78,18.47,80.9,2.33,13.27,.99,26.77,9.82,38.95,3.21,4.43,2.9,12.52,6.47,18.22Z"/>
  <path class="cls-23" d="M262.33,488.23c-5.44-3.25-14.72-4.33-8.06-14.42,.47-.71,.5-2.52,0-2.95-12.56-10.66-9.47-25.57-11.07-39.32-2.51-21.57-2.09-44.35-9.31-64.31-10.91-30.18-35.1-49.93-66.01-59.7-5.68-1.79-13.94-1.06-18.95,1.94-8.82,5.28-18.28,6.18-27.68,8.28-8.48,1.89-14.67,6.42-19.35,14.03-3.46,5.63-4.99,13.62-13.52,14.82-2.62-2.82-2.03-5.66-.08-8.51,1.58-1.91,4.15-3.12,5.17-5.28,14.32-30.32,43.42-30.32,70.47-34.5,2.89-.45,5.95-.29,8.56,.9,24.48,11.19,48.77,21.07,60.97,49.43,5.06,11.76,11.08,23.11,14.48,35.71,2.93,10.89,2.93,22.18,3.69,33.11,1.52,21.73,9.59,41.41,15.08,61.92,1.02,3.81,8.21,4.1,5.04,9.77-2.39,.27-4.81,.84-6.94-.89-.83,0-1.65-.02-2.48-.03Z"/>
  <path class="cls-39" d="M75.9,401.25c8.33-11.1,11.25-24.36,14.9-37.32,6.34-22.52,17.63-39.66,43.64-41.77,3.55-.29,7-2.34,10.39-3.82,18.14-7.92,34.11-3.95,47.65,9.58,6.35,6.35,14.75,9.19,20.94,16.54,18.5,21.94,18.52,48.36,21.46,74.22,1.53,13.43,.57,27.25,3.16,40.41,1.99,10.1,7.78,19.46,11.88,29.14-7.89,.52-12.41-3.34-14.03-10.88-2.85-13.25-5.39-26.47-6.08-40.14-1.01-20.06-1.38-40.2-5.57-60.05-3.56-16.82-12.96-28.98-26.89-38.25-2.05-1.36-4.26-2.79-5.69-4.71-8.87-11.98-20.87-13.88-34.84-12.68-15.52,1.33-27.65,11.22-42.47,15.01-14.86,3.8-18.55,21.13-22.08,36.01-2.53,10.69-7.6,20.8-11.68,31.11-.63,1.58-1.31,4.65-4,2.36-.91-.77-.49-3.1-.67-4.72Z"/>
  <path class="cls-16" d="M73.39,359.03c-2.47,2.47-4.95,4.94-7.42,7.41-1.78-57.42-3.44-114.84-2.44-172.29,.08-4.75-1.72-9.95,2.22-14.16,.09,3.32,.17,6.65,.26,9.97,4.4,4.27,3.52,9.84,3.61,15.1,.24,13.58-.29,27.16-.14,40.74,.25,14.31-.4,28.66,.28,42.95,.44,9.44-3.54,19.98,6.09,27.84,2.11,1.72,.95,6.27,1.02,9.54,0,4.45-.01,8.9,0,13.35-.72,6.6,1.83,13.78-3.49,19.55Z"/>
  <path class="cls-36" d="M264.81,488.26c2.49-.01,4.98-.03,7.47-.04,3.52-3.65,8.22-3.11,12.63-3.59,8.11,.44,16.29-.33,24.37,1.01,11.64,3.28,23.58,.9,35.34,1.8,3.67,.28,8.49,.15,9.49,4.04,1.24,4.84-4.4,4.78-7.22,6.68-7.48,.02-14.97,.04-22.45,.06-6.62,0-13.24-.02-19.86-.03,1.69-5.68,.06-7.47-6.28-7.7-11.16-.41-22.66,2.99-33.49-2.23Z"/>
  <path class="cls-39" d="M65.96,388.81c4.09-.86,3.85-5.66,6.82-7.82,1.35,6.9,4.06,13.29,3.11,20.25-3.64-3.88-13.83-2.53-9.94-12.44Z"/>
  <path class="cls-38" d="M448.69,398.8c-.77-.03-1.54-.06-2.31-.09-5.08-4.3-3.7-10.13-3.74-15.63,.03-13-.27-26,.1-38.99-.22-8.05-.08-16.09-.18-24.13,1.73-33.06-2.06-66-2.19-99-.09-1.63,.17,.42-.07-1.21-.9-6.04,2.24-14.04-2.8-17.72-5.2-3.8-9.84,4.09-15.34,5.4-18.93,4.51-38.04,7.42-57.48,5.18-21.64-2.5-33.48-19.86-47.42-33.44-3.74-3.64-7.55-8.13-10.57-12.88-16.13-25.37-25.91-53.18-31.61-82.5-3.71-19.08-5.59-38.46-8.81-57.62-.53-3.16-1.72-6.65,2.16-8.82,2.04-.4,3.81,.06,5.27,1.59,6.42,9.44,4.75,20.67,6.16,31.02,2.38,17.54,5.87,34.74,10.46,51.76,4.61,21.53,18.26,38.5,28.98,56.93,1.88,3.23,5.05,5.65,8.61,6.87,10.34,3.55,20.21,7.56,24.93,18.6,.3,.71,1.18,1.43,1.92,1.49,15.48,1.22,29.83,16.67,46.62,3.1,5.01-4.05,9.95,1.17,15.44,4.43,2.33-8.75,7.09-15.25,14.36-19.65,3.52-2.13,5.16-5.19,5.32-9.19,.81-2.25,1.34-4.85,4.74-4.08,4.08,17.05,6.07,34.3,5.07,51.86-.16,2.84-.19,5.76,2.4,7.81-.01,59.64-.03,119.28-.04,178.93Z"/>
  <path class="cls-7" d="M304.59,23.43c-4.14,.01-8.28,.02-12.43,.03-3.8,6.99-2.96,14.59-.96,21.47,5.86,20.11,11.8,40.22,18.84,59.96,3.22,9.02,7.07,17.77,16.78,21.97,1.51,.65,3.06,1.54,4.03,2.85,12.2,16.59,29.27,17.78,47.66,15.47,8.21-1.03,16.63-1.18,24.77-.18,11.94,1.46,18.9-3.35,22.68-14.23,.66-1.89,1.39-3.9,2.92-5.4,5.36,3.73,6.19,8.97,4.97,14.89,1.43,16.82-10.23,26.72-26.51,27.89-20.63,1.49-39.72-2.48-59.42-7.24-20.78-5.02-33.17-18.79-43.49-35.23-17.58-28-22.03-59.87-25.41-91.98-1.13-10.7,2.71-15.77,13.57-15.19,2.48,0,4.95-.03,7.43,.02,2.53,.7,5.19,1.28,4.59,4.9Z"/>
  <path class="cls-40" d="M292.18,20.95c-8.35-.29-11.41,2.85-10.18,11.87,3.11,22.73,3.99,46.1,12.97,67.37,8.82,20.91,20.46,40.84,39.6,54.26,4.23,2.96,11.6,2.03,17.46,4.24,9.75,3.67,20.44,9.2,29.91,7.91,7.38-1,15.26,2.39,21.75-1.48,4.85-2.89,8.24,6.36,13.2,.02,6.22-7.96,16.53-12.97,16.96-24.86,7.93,4.62,4.49,13.46,7.41,19.94-2,1.05-2.38,2.9-2.44,4.91-1.84,1.67-.83,5.06-3.59,6.14-21.07,8.24-42.05,17.78-64.93,6.02-8.24-4.24-17.36-5.55-26.12-7.76-18.79-4.73-30.41-16.92-39.25-33.29-5.61-10.4-10.05-21.54-17.74-30.76-7.94-28.47-10.86-57.8-14.88-86.94,7.09-3.06,13.95-4.13,19.87,2.41Z"/>
  <path class="cls-6" d="M389.09,65.72c2.66,11.32,16.14,15.22,18.63,28.03-8.24-1.93-16.08-1.03-24.07-.29-10.41,.97-21.36-1.68-27.72-12.06-2.76-4.5-8.05-3.36-11.17-5.43-6.59-4.39,6.12-1.97,3.52-7.74-4.51-10.01-9.38-20.44-20.35-22.53-11.42-2.18-16.91-9.76-23.34-17.29,31.07,5.86,62.47,10.97,84.51,37.3Z"/>
  <path class="cls-9" d="M428.88,125.37c-1.31,17.49-6.95,22.19-24.27,22.52-12.13,.23-25.45,2.95-36.14,1.51-11.62-1.57-29.51,2.91-36.51-14.17-.61-1.48-1.63-3.22-2.95-3.91-26.8-14.07-24.87-42.66-33.9-65.84-4.64-11.91-6.32-23.82-6.76-36.31-.13-3.57-.19-5.61,3.84-5.71-4.23,13.99,5.64,24.58,9.06,36.69,4.63,16.41,10,32.63,15.39,48.81,2.6,7.79,11.15,12.15,16.66,13.72,15.26,4.35,30.11,12.53,45.76,12.74,16.42,.22,34.9,3.05,48.19-11.84,.55,.6,1.11,1.19,1.66,1.79Z"/>
  <path class="cls-41" d="M304.59,23.43c-1.09-1.99-2.97-2.41-5.01-2.49-1.43-4.5,3.53-4.72,4.92-7.32,5.83,2.45,11.65,4.9,17.48,7.36,1.31,2.72-.58,3.85-2.48,4.96-5.12,.08-10.29,.46-14.9-2.5Z"/>
  <path class="cls-33" d="M304.5,13.61c.47,3.85-3.42,4.79-4.92,7.32-2.47,0-4.94,0-7.41,.01-6.12-4.94-13.27-1.41-19.87-2.41-1.66,0-3.33-.02-4.99-.03-1.43,.81-2.48,.47-3.16-1.02,.1-1.47,.81-2.53,2.14-3.17,5.49-1.58,10.64,.27,15.83,1.64,5.74-.86,11.99,2.21,17.28-2.22,1.7-.04,3.4-.08,5.11-.12Z"/>
  <path class="cls-10" d="M319.5,25.93c.83-1.65,1.66-3.31,2.48-4.96,5.93,2.74,11.87,5.47,18.82,8.68-8.82,3.23-15.01-.53-21.31-3.72Z"/>
  <path class="cls-46" d="M75.9,242.18c.91-29.52-2.36-59.12,4.58-88.49,9.66-40.87,30.38-73.87,64.97-97.95,3.14-4.96,9.14-5.26,13.62-8.06,4.12-2.58,10.91,7.51,9.76,15.27-3.06,20.59-5.75,41.34-9.72,61.66-3.8,19.45-14.74,35.52-33.89,46.35-17.16,9.71-32.62,22.69-35.56,45.56-1.46,11.36-3.34,22.74-4.6,34.18-.4,3.65-.29,8.95-4.88,8.73-5.49-.27-2.14-5.81-2.94-8.95-.69-2.7,.9-5.8-1.34-8.29Z"/>
  <path class="cls-45" d="M75.9,242.18c5.06,4.2,.54,10.99,4.07,16.71,3.9-5.06,2.69-10.45,2.83-14.75,.52-16.33,5.81-31.45,9.13-47.1,1.47-6.92,6.26-6.27,9.01-9.32,8.36-9.26,17.45-17.49,28.79-23.85,18.85-10.57,27.41-28.98,27.16-50.05-.13-11.12,7.2-20.09,5.89-30.83-.51-4.19-1.28-8.09,.04-12.32,1.72-5.5,8.72-12.01-2.11-15.94,.8-1.8,1.6-3.6,2.73-6.16-6.33,2.52-12.16,4.85-18,7.17,3.11-9.69,14.78-7.94,19.93-14.91,3.1-1.68,5.47-5.03,9.66-4.24,4.83,1.25,6.33,5.45,6.94,9.4,3.83,24.85,10.77,49.55,8.34,74.83-1.01,10.51-2.24,23.12-14.9,28.57-2.98,17.28-22.9,18.6-30.78,32.54-3.48,6.15-13.04,15.52-25.43,13.39-4.41-.76-8.74,3-12.06,7.24-12.32,15.75-21.08,32.48-18.46,53.36,.51,4.09-1.02,8.17-1.31,12.29-.94,7.15-.94,14.52-4.68,21.04-1.53,2.67-2.29,6.36-6.78,5.11,0-17.39,0-34.79,0-52.18Z"/>
  <path class="cls-21" d="M175.32,38.35c-3.32,.83-6.63,1.65-9.95,2.48,.83-1.65,1.66-3.3,2.49-4.95,5.98-7.79,15.2-7.97,23.6-10.08,3.68,.11,8.59-.33,8.93,4.42,1.2,16.5,7.75,31.35,12.49,46.87,5.81,19.01,6.88,39.57,1.57,58.71-6.27,22.6-9.17,47.11-24.73,65.97-7.72,9.35-18.11,17.27-31.78,16.13-10.34-.86-19.59,.56-27.08,8.36-1.46,1.52-3.35,2.43-5.38,2.92-23.63,5.7-31.9,22.48-32.44,44.88-1.46,8.38-2.94,16.74-4.02,25.16-.99,7.68-4.49,12.91-13.04,13.1-1.56-1.8-1.65-3.63-.13-5.5,.01-4.15,.02-8.3,.03-12.45,8.85-7.1,5.71-18.55,9.93-27.33,.48-18.95,5.07-36.42,17.2-51.59,3.34-4.18,6.89-6.77,12.13-7.5,15.1-2.09,26.97-9.66,39.15-18.93,9.12-6.94,18.46-12.28,23.01-23.31,.58-1.41-.56-.09,.9-.77,20.52-9.61,19.88-29.6,20.99-47.07,1.4-22.05-2.53-43.97-12.4-64.33-1.24-2.55-2.51-5.56-2.1-8.33,1.3-8.73-3.42-8.47-9.38-6.85Z"/>
  <path class="cls-42" d="M75.87,306.81c.01,1.65,.02,3.3,.03,4.95,3.9,4.4,3.61,9.17,1.23,14.12-1.01,1.33-2.25,1.6-3.72,.8-.68-4.97,2.03-10.44-4.82-14.23-2.8-1.55-2.76-8.03-2.7-12.66,.21-17.55,.09-35.11,.1-52.66,3.61-3.79,1.99-8.6,2.56-12.99,.39-3.07-.33-7.08,4.84-6.83,.01,22.22-.07,44.45,.11,66.67,.03,4.33-1.61,9.16,2.38,12.83Z"/>
  <path class="cls-13" d="M73.39,227.31c-3.86,3.2-2.14,7.61-2.42,11.54-.26,3.7,.36,7.72-4.98,8.28,0-19.06,.01-38.11,.02-57.17,3.81-2.29,7.88-6.26,7.51,3.02-.46,11.43-.12,22.88-.13,34.33Z"/>
  <path class="cls-14" d="M192.72,28.41c-8.28,2.49-16.56,4.98-24.85,7.47-1.65-.82-3.31-1.65-4.96-2.47,6.65-7.39,14.99-10.57,24.85-9.95,2.58-1.54,3.92,.24,5.28,1.97,.45,1.05,.34,2.05-.32,2.99Z"/>
  <path class="cls-25" d="M192.72,25.93c-1.65-.83-3.31-1.65-4.96-2.48,.46-5.15,4.28-4.98,7.94-4.96,3.44,.02,6.48-.44,7-4.71,.8-.11,1.61-.14,2.42-.07,17.62-1.01,18.41,12.05,21.85,24.43,4.85,17.46,10.63,34.45,12.45,52.79,1.22,12.24-.84,23.97-1.88,35.72-1.42,16.04-2.01,32.14-3.57,48.16-1.58,16.31,2.02,23.43,16.42,30.9,15.77,8.18,32.1,15.4,45.85,26.99,14.5,12.22,22.19,28.46,25.43,46.59,1.93,10.8,3.48,21.79,.25,33.12-1.48,5.18-1.44,12.68,6.16,15.75,1.16,.47,2.28,1.44,2.55,2.59,3.88,16.58,18.46,15.48,30.32,17.43,10.93,1.79,21.44-2.42,29.9-9.3,9.11-7.41,20.51-5.68,30.46-9.46,4.19-1.59,7.58,2.22,8.28,5.72,5.27,26.56,12.15,53.02,7.76,80.53-7.67,1.29-5.86-4.91-6.29-8.58-1.51-12.73-2.19-25.58-5.08-38.11-3.91-17.01-15.47-23.05-30.82-14.23-16.15,9.28-33.03,13.81-51.39,14.6-4.82,.21-9.07-.68-13.11-2.76-7.42-3.83-12.25-7.03-16.32,5.44-6.72,20.59-8.03,41.29-7.35,62.34,.34,10.41,7.68,19.07,9.87,29.28,.95,4.41,5.34,6.17,9.41,7.28,15.45,4.21,30.11,11.2,46.18,13.28,1.68,1.09,2.69,2.48,2.07,4.6-6.93,5.75-14.18,2.42-21.36,.73-6.85-1.98-14-1.47-20.98-2.49-17.45-2.75-29.57-12.58-38.74-27.45-5.96-9.67-7.1-20.16-7.25-30.64-.34-23.29-7.79-45.56-8.91-68.7-.23-4.8-3.22-8.38-8.29-9.75-13.77-3.73-23.95-11.88-31.54-24.07-9.33-14.98-22.79-23.97-38.62-32.88-18.64-10.48-37.56-14.32-57.3-17.03-11.26-1.54-23.15-.19-33.45,7.04-6.56,4.6-7.96,11.07-9.41,18.04-.97,4.67,.19,11.89-8.72,9.67-2.56-11.7,2.67-22.42,4.22-33.6,4.07-9.3,11.22-13.07,21.32-14.2,8.63-.96,16.39-5.8,26-4.28,5.28,.83,10.5,.58,15.06,3.83,1.68,1.19,3.33,3.23,5.36,2.81,17.15-3.55,30.33,7.1,43.91,13.76,9.83,4.83,19.58,11.98,26.67,21.42,4.96,6.59,10.68,12.5,16.62,18.3,6.73,6.58,13.99,9.69,23.3,9.25,5.26-.25,10.67-.69,15.48,2.9,5.07,3.78,9.43,1.28,10.43-3.86,3.6-18.36,12.27-36.8,7.72-55.38-4.41-18-15.09-33.47-33.27-41.88-11.57-5.35-22.05-12.65-34.18-17.27-15.4-5.87-17.64-20.83-18.9-35.05-1.59-17.9,2.39-35.55,5.84-52.81,6.78-33.91-4.15-64.34-14.9-95.1-.7-2.02-2.57-3.18-4.34-4.26-4-2.91-8.02,.12-12.03,0-.53,.02-1.06,.04-1.59,.06Z"/>
  <path class="cls-30" d="M436.33,416.16c.55-25.22-4.05-49.89-7.77-74.66-1.24-8.28-3.93-9.19-13.16-8.35-16.85,1.55-27.71,14.63-43.46,17.78-13.02,2.6-24.1-4.25-36.45-4.4-2.7-.03-4.48-14.9-8.05-15.56-13.48-2.49-10.64-16.2-9.26-19.17,5.14-11.03,1.62-21.3,.49-31.46-1.89-16.88-9.99-31.56-22.22-43.34-14.13-13.62-32.57-20.47-49.46-29.72-12.87-7.05-18.22-18.71-16.57-32.88,2.89-24.7,6.09-49.51,6.54-74.31,.31-17.35-3.53-34.85-9.73-51.41-2.31-6.17-4.09-12.3-5.32-18.85-1.03-5.49-.73-16.94-13.27-10.59-2.06,1.04-3.21-3.03-3.53-5.53,14.76-2.91,29.43-6.64,44.7-5.11-.12,6.23-5.58,4.96-9.05,6.23-5.55,2.03-7.73,4.77-5.78,11.2,8.31,27.43,12.06,55.72,14.95,84.15,.47,4.59,.61,9.12-.74,13.54-5.2,17.02-3.69,34.51-3.22,51.83,.35,13,6.61,23.98,19.18,27.95,20.64,6.53,35.58,20.97,50.88,34.59,10.29,9.16,14.86,23.14,17.76,36.28,3.59,16.27,11.49,29.93,20.08,43.58,4.9,7.79,12.26,9.68,20.55,7.85,15.6-3.46,29.58-10.16,40.94-21.83,3.25-3.34,5.89-9.13,11.97-6.89,6.22,2.28,7.55,8.15,8.41,14.13,2.34,16.38,4.45,32.73,4.04,49.39-.22,8.93-.13,18.31,6.52,25.74-2.57,4.15,.69,8.26,.07,12.39-.08,9.96-.17,19.92-.26,29.87-10.43,1.5-10.82-4.9-9.79-12.43Z"/>
  <path class="cls-18" d="M446.31,386.32c-4.1,.11-7.13-.63-7.57-5.83-.59-6.94-3.2-13.61-2.44-20.78,1.83-17.39-2.68-34.35-3.74-51.55-.23-3.83-2.3-7.38-5.71-9.12-4.83-2.47-4.79,2.95-6.75,5.03-13.01,13.8-28.78,22.17-47.56,25.4-11.16,1.92-17.74-2.82-23-12.02-8.39-14.64-15.11-29.31-19.57-46.16-7.79-29.42-29.96-49.05-57.72-60.92-23.63-10.11-29.84-17.87-29.79-43.55,.03-15.63,.19-31.04,3.96-46.63,2.38-9.86-.47-21.2-1.97-31.73-3.12-21.83-6.42-43.65-13.83-64.6-2.1-5.93,1.62-8.92,6.53-11.53,4.07-2.16,9.4,.56,12.68-3.74,2.51,0,5.02-.01,7.53-.02,8.06,3.03,5.88,6.06,.02,9.12-2.25,.98-4.65,1.47-7.03,1.97-5.12,1.28-8.16,3.62-6.05,9.66,15.28,43.69,11.74,89.05,10.91,134-.31,16.49,6.75,26.37,19.61,34.2,17.66,10.75,35.79,20.88,50.18,36.15,10.81,11.48,21.21,23.33,24.72,39.33,2.1,9.54,7.36,17.51,12.01,25.76,3.76,6.67,22.36,7.63,28.81,.88,6.39-6.7,12.71-12.82,21.76-15.76,4.2-1.37,5.53-5.91,7.69-9.39,1.72-2.77,3-6.3,7.09-5.99,4.22,.32,6.48,3.36,7.94,6.97,2.98,7.35,5.12,14.92,4.46,22.95-1.05,12.92,2.5,25.49,2.63,38.31,.03,3.13,1.62,5.48,3.91,7.44,.1,14.05,.19,28.1,.29,42.14Z"/>
  <path class="cls-28" d="M257.34,15.96c3.44-2.45,3.51-4.91,.02-7.37,9.3-1.07,17.14,2.79,24.77,7.36-5.76,.03-11.52,.06-17.28,.09-2.52,1.91-5.03,2.16-7.5-.08Z"/>
  <path class="cls-6" d="M129.11,433.48c2.53-3.33-.19,9.91,4.34,1.37,.48-.91,2.89,3.99,5.86-1.54,3.74-6.97,18.32-8.89,7.74-21.27,4.21-3.56,7.56-7.94,13.16-10.08,4.95-1.89,11.53-2.11,12.17-10.61,13.26,17.63,2.89,31.92-4.83,43.56-8.47,12.76-13.93,26.59-20.44,40-3.04,6.27-5.49,10.2-12.78,10.96-8.59,.9-15.28-1.94-21.11-7.8-1.76-1.77-.12-2.9,.72-4.2,8-12.37,11.48-26.43,15.17-40.41Z"/>
  <path class="cls-14" d="M436.33,416.16c2.66,4.62,3.27,10.85,9.79,12.43-.02,4.99-.03,9.99-.05,14.98-.44,.69-.74,1.48-1.2,2.15-2.62,3.91,1.2,12.58-4.87,12.22-6.7-.4-5.45-8.9-6.49-14.3-1-5.2,.41-10.72-1.9-15.77-4.77-11.26-3.82-23.48-5.8-35.22-1.03-6.1-1.46-12.36-4.55-17.85-3.48-6.18-9.36-11.23-16.01-9.45-11.41,3.05-23.59,2.48-34.42,8.74-8.66,5-19.27,3.58-28.98,5.06-10.12,1.54-20.57,8.75-22.96,18.61-4.67,19.21-5.1,38.12,5.29,56.14,3.39,5.87,7.16,9.48,14.22,10.05,6.53,.52,12.94,2.45,19.38,3.82,9.4,2.01,14.8,7.73,13.93,17.99-19.01,.43-35.22-9.44-52.7-14.6-3.42-1.01-6.07-3.76-6.12-9.28-.1-11.05-8.28-19.83-9.78-31.43-1.55-11.99,2.56-22.8,2.58-34.29,.02-8.54-1.12-20.34,8.09-27.45-4.39-16.7,9.67-9.18,12.82-7.67,23.31,11.17,43.58,3.72,63.65-8.05,9.91-5.81,20.79-4.28,31.43-3.24,3.25,.32,3.05,3.75,3.98,6.56,5.77,17.32,6.96,35.24,8.17,53.2,.17,2.52,.18,4.99,2.5,6.65Z"/>
  <path class="cls-14" d="M433.84,426.11c5.58,9.27-.05,20.67,6.3,31.58,2.05-5.58-.08-11.99,5.93-14.12,.08,14.77,.22,29.54,.2,44.31,0,3.57,.98,7.51-2.54,10.26-6.7-1.02-12.59-5.09-19.55-5.12-1.13-.37-2.13-.96-3.02-1.73-.52-1.05-.58-2.15-.2-3.26,3.22-4.69,14.43-.09,12.51-10.77-1.92-13.43-6.03-26.58-4.5-40.37,1.32-3.73,1.5-7.98,4.86-10.78Z"/>
  <path class="cls-19" d="M351.82,488.24c7.46,0,14.92-.01,22.38-.02,1.58-1.47,3.49-1.87,5.57-1.73,7.14,1.9,14.84-.38,21.82,2.85,2.95,2.34,5.05,4.93,2.45,8.81-19.05,0-38.09,0-57.14,0,.96-2.71,5.31-2.47,5.31-6.46-13.99-3.6-28.89,2.7-42.67-3.42,5.12-5,11.4-3.52,17.23-2.52,8.32,1.43,16.89-.12,25.05,2.49Z"/>
  <path class="cls-27" d="M423.87,490.77c8.19-1.76,14.18,2.42,19.88,7.38-7.44,3.22-14.91,.61-22.36,.13-6.36-4.88-.55-5.73,2.49-7.5Z"/>
  <path class="cls-15" d="M423.87,490.77c-1.62,2.24-5.15,3.84-2.48,7.5-5.79-.04-11.57-.07-17.36-.11-.84-2.46-1.68-4.93-2.52-7.39,6.63-4.91,13.27-4.54,19.92-.04,.81,0,1.63,.02,2.44,.05Z"/>
  <path class="cls-26" d="M73.39,359.03c0-6.64,.02-13.28,.03-19.92,1.2-.85,2.32-.75,3.36,.29,1.89,2.73,2.18,5.76,1.69,8.93-.21,1.49-1.08,2.84-1.08,4.8,2.06-6.81,6.2-12.62,5.42-19.81,.4-4.93,1.61-9.61,4.05-13.94,6.01-4.55,9.76-9.84,11.31-17.92,1.96-10.22,9.93-15.08,20.26-18.89,38.87-14.33,68.72,9.33,101.17,22.14,4.64,1.83,7.62,6.1,10.48,10.22,6.74,9.71,11.29,20.85,20.82,28.79,5.27,4.39,5.76,11.6,5.01,18.42,11.47,22.7,12.72,47.83,17.21,72.2,.45,2.42,.53,5.14,1.98,7.07,8.26,11.05,8.61,23.53,7.17,36.45-.27,2.43,.91,4.84,.65,7.32-11.19,2.09-13.08,.75-13.21-9.43-.13-9.83-7.82-16.79-9.71-26.22-1.62-8.07-4.21-15.94-4.52-24.27-.75-19.94-4.99-39.46-10.09-58.48-3.09-11.52-13.91-20.05-19.08-31.32-5.82-12.71-14.83-21.26-29.15-24.33-7.12-1.53-11.78-8.69-19.3-10.74-19.01-5.2-38.26-3.44-56.21,1.96-8.35,2.51-16.47,11.55-21.51,20.67-3,5.43-6.22,10.71-9.33,16.07-2.92,1.81-2.4,4.73-2.44,7.48-.01,.82-.03,1.65-.03,2.47-2.8,4.49-2.07,10.13-4.51,14.6-1.52,2.78-1.62,9.18-7.95,5.31-3.61-2.62-2.11-6.51-2.48-9.94Z"/>
  <path class="cls-16" d="M75.87,368.96c6.45-.83,6.4-6.42,8.06-10.84,1.18-3.14-.59-7.77,4.4-9.07,.24,8.49-2.01,16.49-7.22,22.96-5.24,6.51-4.95,.56-5.24-3.05Z"/>
  <path class="cls-16" d="M90.8,339.11c2.04-12.37,11.02-20.46,17.73-30.15,10.47-15.1,25.85-11.67,40.14-13.35,15.91-1.87,30.91-.64,44.01,10.05,8.07,6.59,20.59,4.42,27.39,14.48,5.08,7.52,7.66,16.7,13.59,23.21,22.73,24.93,20.78,56.69,25.41,86.67,1.95,12.62,2.75,25.61,13.15,35.08,2.9,2.64,1.61,7.25,.9,9.14-3.65,9.76,1.1,11.62,9.1,11.51,2.23-.6,3.05,.23,2.5,2.46-4.15,0-8.29,0-12.44,.01-8.16-2.84-6.53-11.4-9.63-16.07-5.85-8.8-5.53-18.33-9.19-26.97-5.4-12.74-4.51-26.46-6.06-39.52-1.29-10.87-3.74-21.51-4.99-32.34-.82-7.08-3.83-12.21-8.78-17.9-6.69-7.68-8.26-19.32-16.47-26.74-1.63-1.47-1.37-4.22-3.99-5.68-25.58-14.21-49.64-30.41-82.05-15.8-14.28,6.44-28.15,9.98-34.03,26.2-.85,2.35-4.12,3.83-6.27,5.71Z"/>
  <path class="cls-30" d="M75.87,339.14c-.82,0-1.63-.02-2.45-.03,0-4.14,0-8.28,0-12.42,.83,0,1.65,0,2.48,0,1.63,1.36,2.32,3.18,2.58,5.22,.1,2.75-.31,5.33-2.6,7.23Z"/>
  <path class="cls-27" d="M284.72,488.21c-.83-.82-1.66-1.64-2.5-2.46-.89-1.38-2.82-3.04-2.53-4.11,6.06-22.59-9.8-40.94-12.46-62.13-2.05-16.34,.06-35.5-12.94-49.8-1.65-1.82-1.31-5.44-1.9-8.23,9.78-7.16,14.34-.05,18.09,7.15,9.78,18.77,12.06,39.44,12.52,60.02,.41,18.23,8.42,33.95,13.38,50.69,1.12,3.77,5.64,2.75,8.79,3.09,8.94,.98,18.14-.25,26.76,3.32,7.15-3.34,13.48-.12,19.88,2.49-14.09,0-28.19,.02-42.28,.03-8.27-.02-16.55-.04-24.82-.06Z"/>
  <path class="cls-29" d="M446.01,344.18c-3.38,.18-7.76,2.39-7.24-4.35,1.08-14.06-4.03-27.77-2.53-41.92,.39-3.65,.94-8.03-.63-10.99-2.81-5.29-.58-14.22-7.6-15.77-6.8-1.51-4.52,8.09-8.95,11.25-2.28,1.63-3.49,5.03-7.08,5.43-7.8,.88-12.26,6.21-16.89,11.86-4.08,4.98-8.67,8.66-16.69,7.56-16.18-2.22-25.65-9.09-30.26-28.26-7.33-30.44-28.94-48.55-52.91-65.13-12.46-8.61-26.79-14.32-37.2-26.24-3.94-4.51-5.76-8.26-5.72-13.93,.18-25.6-.41-51.21,.22-76.79,.61-24.68-5.45-47.88-13.43-70.8-4.16-11.96,8.37-5.5,10.81-10.09,7.13,19.92,10.68,40.79,12.46,61.57,1.69,19.73,3.72,39.46,5.11,59.22,2.17,30.81,16.8,54.37,41.61,70.82,24.32,16.12,41.27,37.58,54.78,62.72,8.28,15.4,18.03,13.34,31.12,2.22,9.51-8.08,18.36-18.53,30.75-23.22,6.96-2.63,11.01,.95,13.07,7.5,.81,9.71,.35,20.1,3.35,28.89,3.84,11.27,.83,22.65,4.07,33.52-.07,8.31-.14,16.62-.21,24.93Z"/>
  <path class="cls-35" d="M446.23,319.25c-.29-.29-.82-.58-.82-.88-.39-21.63-11.52-41.73-9.09-63.75-1.72-3.69-2.6-7.72-4.61-11.47-14.98,5.64-28.56,13.53-40.24,24.62-7.14,6.78-18.52,3.71-25.11-3.47-13.82-15.07-25.69-31.92-41.48-45.24-12.57-10.6-25.84-20.6-36.97-32.63-8.38-9.05-12.36-21.17-15.66-33.21-7.99-29.18-9.42-59.21-12.51-89.07-1.34-12.93-3.23-25.95-7.72-38.4-1.7-4.72-1.89-9.58,5.89-7.7,8.94,8.24,7.57,19.84,9.13,30.15,4.61,30.55,10.58,60.88,15.67,91.25,4.06,24.26,18.68,36.89,33.04,52.51,13.33,14.49,30.75,24.51,41.78,41.57,8.62,13.34,21.86,15.37,36.39,8.16,6.94-3.44,13.89-6.5,19.77-12.31,6.47-6.4,15.2-5.18,23.13-1.23-1.62,.47,1.59-.63,.96,.84-.31,.74,1.48,1.22,1.45,.8-.36-4.86-3.4-10.6,4.54-12.42,.33,33.98,3.78,67.87,2.46,101.89Z"/>
  <path class="cls-37" d="M443.77,217.36c-5.09,5.03-.78,11.73-3.1,17.4-3.18-.17-3.01-3.27-4.35-5.01-.97-2.31-1.21-4.81-1.81-7.21-1.79-7.12-6.71-9.72-11.51-4.28-11.23,12.74-29.36,8.55-41.52,18.31-.64,.51-1.78,1.17-2.25,.86-9.23-6.06-23.27-3.89-29.51-13.18-9.23-13.75-23.78-21.33-34.14-33.56-3.4-4.01-7.83-7.15-10.01-12.24-.98-2.28-1.76-5.3-3.83-6.27-13.98-6.56-13.29-19.68-17.54-32.06-13.54-39.38-14.96-80.61-22.93-120.76-.07-.33,.32-.75,.49-1.13,1.09-.8,2.11-.72,3.06,.24,.84,0,1.67,.02,2.51,.03,6.66,26.66,7.22,54.38,14.55,80.98,4.01,14.55,11.12,27.91,15.7,41.67,4.9,14.7,12.86,26,22.29,36.24,15.74,17.1,31.44,37.32,58.73,33.42,16.39-2.34,33.78-.19,49.14-8.94,1.6-.91,4.01-.68,4.82-2.85,.67-1.8,2.05-6.24,2.54-4.15,1.26,5.31,10.56,.93,8.23,7.97-1.64,4.97-.28,9.7,.45,14.52Z"/>
  <path class="cls-34" d="M287.19,105.47c9.78,5.28,12.8,15.77,16.85,24.56,11.24,24.38,30.3,35.6,55.79,40.72,9.04,1.82,19.88,1.83,27.52,8.91,3.99,3.7,8.59-3.99,12,1.3,6.01-6.73,19.36,.9,22.57-11.58,.46-1.81,2.29-4.02,4.43-1.36,6.3,7.83,8.61-.71,12.47-2.9-.89,2.82,4.11,7.03-1.1,8.51-9.56,2.73-14.6,10.02-17.83,18.06-2.46,6.13-7.08,3.41-8.18,2.14-4.48-5.17-6.32-7.16-11,.64-1.85,3.08-11.57,.66-17.16,2.45-6.74,2.15-12.01,4.3-13.12-5.68-.29-2.59-2.11-2.5-4.59-1.43-7.25,3.12-15.08,1.05-17.13-5.67-2.55-8.39-7.98-11.07-14.71-12.87-10.31-2.77-17.1-8.76-22.04-18.29-8.22-15.85-19.24-30.24-24.75-47.51Z"/>
  <path class="cls-39" d="M264.81,18.48c-.82,0-1.65,.01-2.47,.02-1.66,1.46-3.32,1.46-4.98-.01-3.53,.35-5.92,2.29-4.21,5.71,10.9,21.74,8.19,45.76,11.34,68.71,4.02,29.3,8.18,58.31,20.68,85.51,3.58,7.8,10.75,12.25,16.57,17.12,19.86,16.61,39.71,32.96,55.09,54.09,4.43,6.09,14.55,7.55,14.11,17.87-.08,1.92,16.85,.99,18.5-1.44,7.79-11.48,20.79-16.02,31.99-22.09,11.73-6.36,13.95-3.67,14.9,10.66-10.32-9.31-15.55,1.02-20.99,6.33-3.68,3.59-5.72,7.84-11.98,8.06-3.61,.13-6.23,2.94-7.73,7.68-2.1,6.62-9.88,9.82-15.63,8.35-6.07-1.56-13.28-.75-17.68-10.16-11.67-24.98-27.63-47.03-51.82-62.51-13.03-8.33-26.18-18.5-33.39-32.23-4.23-8.04-9.57-16.95-10.74-26.25-5.58-44.29-6.72-89.11-16.39-132.91-.35-1.58-.04-3.3-.04-4.95,2.47-.02,4.95-.04,7.42-.06,2.5,.03,5,.05,7.5,.08-.01,.81-.03,1.63-.03,2.44Z"/>
  <path class="cls-20" d="M175.32,38.35c3.27-3.59,7.59-6.41,12.01-4.25,6.29,3.07-1.15,7.1-.37,10.16,1.35,5.29,5.13,9.94,6.61,15.22,2.95,10.48,4.82,21.26,7.51,31.82,3.31,12.99,3.58,27.09,1.44,39.14-1.84,10.36-7.94,20.82-9.15,32.25-.13,1.22-2.51,3.37-3.41,3.17-14.29-3.24-13.01,8.77-16.31,16.3-.31,.72-.94,1.67-1.57,1.82-21.1,4.73-33.47,27.92-57.11,27.08-4.78-.17-6.45,2.27-9.23,5.8-11.7,14.87-17.04,31.95-19.91,50.16,.49-15.28-3.16-31.25,5.19-45.36,6.43-10.87,12.99-21.89,23.16-30.01,1.82-1.45,3.63-1.68,5.72-1.31,6.11,1.08,9.75-2.45,14.58-5.53,11.18-7.14,17.8-21.46,30.1-24.11,6.77-1.46,2.82-5.15,5.03-6.19,3.96-1.87-2.29-14.66,9.12-8.51,.24,.13,1.81-1.46,2.2-2.46,6.15-15.65,8.87-31.83,6.23-48.56-1.07-6.78-.06-15.73-2.66-19.91-7.3-11.74,.27-26.32-9.17-36.74Z"/>
  <path class="cls-12" d="M192.72,28.41c0-.83,0-1.65,0-2.48,0,0,0,0,0,0,8.99-3.88,15.04-.12,16.78,8.49,6.85,33.87,20.21,66.95,11.68,102.76-2.56,10.72-4.98,21.56-7.6,32.25-4.14,16.85-.48,30.85,10.79,43.44,5.98,6.68,12.65,11.71,22.31,11.23,5.44-.27,10.46,2.13,15.66,3.35,1.19,.29,2.35,.72,3.45,1.24,12.05,7.54,22.41,16.66,28.94,29.73,7.61,15.23,4.59,28.07-8.64,39.07-6.82,5.68-11.5,13.73-21.95,14.35-11.55,.68-21.36-1.55-28.05-11.74-3.21-4.89-6.98-9.34-11.44-12.97-12.7-10.34-16.63-23.85-15.96-39.61,.55-13.04-1.77-13.77-13.98-10.71-14.59,3.66-29.62,7.23-44.53,.64-1.91-.84-4.14-2.32-5.86-1.5-15.28,7.24-35.19,5.88-44.51,24.39-2.14,4.24-1.79,11.09-9,11.64,0-25.74,9.67-39.12,34.38-45.01,5.79-1.38,4.67-8.14,10.86-8.83,7.92-.89,14.66-5.76,23.95-2.79,7.97,2.56,24.32-12.71,29.77-20.08,9.28-12.55,9.29-28.15,15.2-40.71,12.41-26.41,10.25-52.22,4.45-78.02-2.8-12.49-7.63-25.12-12.06-37.45-1.16-3.22,6.64-11.98-4.65-10.7Z"/>
  <path class="cls-13" d="M90.82,272.01c1.63-3.26,3.23-6.55,4.91-9.79,5.04-9.71,9.05-19.91,23.17-20.09,4.3-.05,9.53-2.5,14.12-6,5.01-3.81,13.12-8.29,19.8-.33,3.5,4.17,9.18,2.75,12.54,2.14,10.8-1.96,22.14-.24,32.55-5.1,8.55-3.99,14.94,1.39,14.66,11.66-.11,3.96-.82,7.81-.77,11.88,.18,13.5,7.63,21.95,16.54,30.28,4.17,3.9,7.58,8.67,11.05,13.27,9.63,12.78,30.42,12.92,39.1-.39,4.24-6.49,13.78-5.95,16.17-15.29,4.43-17.29-3.3-29.35-14.34-40.55-4.87-4.94-10.31-9.32-15.5-13.95,14.38-1.98,23.15,8.3,29.63,17.41,8.74,12.28,13.19,26.92,8.74,43.33-2.48,9.15-6.32,15.87-14.18,20.58-.71,.43-1.47,.77-2.17,1.2-28.5,17.15-35.99,14.31-54.8-11.4-1.74-2.37-3.61-5.28-5.89-6.22-13.5-5.58-19.16-21.69-34.16-25.08-1.16-.26-2.49-.95-3.15-1.91-17.9-25.98-42.75-16.56-66.5-13.27-13.8,1.91-21.47,10.63-26.54,22.59,1.01,11.98-4,23.09-5,34.78-.32,1.09-.8,2.09-1.44,3.03-2.8,2.54-3.1,6.26-4.59,9.42-1.71,3.63-2.71,8.81-8.85,7.44,0-1.65-.01-3.3-.02-4.95,0-4.98,.01-9.96,.02-14.93,13.67-5.11,9.1-18.34,12.15-28.06,1.17-3.72,.62-8.05,2.76-11.7Z"/>
  <path class="cls-14" d="M95.79,276.98c1.47-13.33,10.04-18.93,21.3-24.37,15.63-7.55,31.04-3.94,46.35-3.78,9.99,.1,23.04,.46,25.01,15.73,.06,.47,1.15,.93,1.84,1.18,10.18,3.66,16.98,11.28,24.97,18.09,9.4,8.01,17.6,16.81,26.08,25.55,13.02,13.43,16.04,13.2,33.39,6.31,17.46-6.94,27.75-18.27,27.22-37.4-.49-17.67-6.42-32.74-23.2-41.71-4.58-2.45-7.59-7.98-13.93-6.83-10.4-7.39-24.69-4.37-34.68-14-9.83-9.48-14.95-20.08-16-33.57-1.36-17.55,4.43-34.03,6.78-50.98,3.93-28.35,1.32-55.43-8.94-82.07-3.17-8.23-4.26-17.19-6.82-25.68,4.94-.59,7.86,1.84,9.19,6.36,6.78,23.11,17.01,45.68,17.12,70.02,.07,16.46-3.91,32.99-6.58,49.41-2.66,16.33-4.31,32.37,2.18,48.37,2.54,6.27,6.33,11.01,12.33,12.98,17.37,5.73,31.73,16.54,47.22,25.61,9.49,5.55,11.51,13.69,16.23,21.59,7.56,12.64,9.26,25.84,5.09,38.86-3.72,11.6-1.38,24.18-7.83,35.27-3.34,5.73-7.14,7.94-11.37,3.81-4.72-4.6-9.48-4.31-14.83-3.8-21.84,2.09-31.25-15.32-43.45-28.01-8.77-9.12-17.12-17.71-30.04-21.8-5.93-1.88-11.49-7.26-17.68-10.51-4.32-2.27-8.11-2.68-12.66-2.57-6.31,.15-11.77-.39-18.31-4.1-7.12-4.03-18.5-7.21-27.66,.39-1.38,1.15-3.92,1.37-5.89,1.26-9.38-.53-17.14,2.19-22.42,10.38Z"/>
  <path class="cls-30" d="M88.34,311.78c.82,0,1.63-.02,2.45-.02,3.38-1.53,5.21-4.18,4.93-7.86-1.02-13.12,7.71-20.2,16.07-28.17,4.82-4.6,7.06,2.42,11.01,.36,16.96-8.81,33.28,1.47,49.95,2.27,7.75,.38,14.88,3.4,20.18,9.77,1.52,1.82,3.85,3.84,6.02,4.11,23.05,2.9,33.21,20.65,44.08,37.67,5.69,8.91,14.32,12.98,24.12,16.12,5.76,1.85,13.04,3.62,13.25,12.49,.58,24.43,9.48,47.87,8.42,72.58-.86,20,10.63,34.89,23.9,47.55,4.07,3.88,13.84,1.4,19.22,7.11-11.54-.34-23.08-.88-34.63-.94-6.31-.03-7.38-1.24-5.53-7.98,1.49-5.43-3.7-11.33-5.76-16.93-7.25-19.75-5.65-40.44-8.78-60.57-1.91-12.33-7.01-23.68-11.86-34.93-1.54-3.56-8.01-4.51-12.99-2.93,2.58-6.11,.88-12.89-3.46-15.8-10.34-6.93-13.55-18.11-19.52-27.63-3.6-5.75-8.11-10.2-14.58-12.65-23.57-8.94-45.26-22.6-71.39-25.21-10.82-1.08-18.16,6.32-28.64,6.65-8.91,.28-16.16,11.27-16.73,22.98-.27,5.56-4.07,8.75-9.71,9.45-2.03-2.49-1.63-4.98-.03-7.48Z"/>
  <path class="cls-13" d="M379.13,488.28c-1.65-.02-3.29-.04-4.94-.06-.83-.82-1.66-1.65-2.49-2.47-5.31-19.16-22.9-15.72-36.44-19.52-2.42-.68-5.84,2-7.81-1.28-8.65-14.38-17.64-28.86-14.73-46.67,.8-4.87,1.6-9.66,1.86-14.6,.85-15.94,11.4-26.58,27.1-27.28,20.5-.9,39.11-9.85,58.93-13.79,10.88-2.16,17.32,.98,22.42,10.1,7.26,12.99,5.99,27.56,8.18,41.47,.64,4.07,.45,8.21,2.63,11.91-.35,3.43,1.15,7.33-2.48,9.95-6.32-5.42-9.42-11.98-8.33-20.58,1.97-15.46-5.69-27.39-17.18-35.67-8.61-6.2-20.61-4.89-29.84-.96-9.02,3.85-18.35,7.3-27.16,11.89-19.28,10.06-24.78,25.29-19.69,46.35,3.7,15.33,13.02,20.53,26.55,21.86,6.27,.62,11.94,3.22,18.04,4.2,1.66,.27,4.05,.1,4.32,1.66,2.04,12.15,11.58,16.65,20.93,21.72,1.64,.89-.63,2.55-2.32,2.92-5.84-.63-11.84,1.29-17.55-1.19Z"/>
  <path class="cls-13" d="M205.16,23.45c12.03,32.77,25.2,64.58,18.41,101.69-3.46,18.91-8.18,38.46-6.24,58.55,1.86,19.33,13.74,33.94,32.38,36.15,6.76,.8,10.16,6.48,15.1,9.91-21.84-.02-41.86-4.78-51.91-26.5-4.28-9.26-7.08-19.91-3.91-30.9,3.69-12.8,6.89-25.69,9.06-38.94,3.38-20.61,5.11-41.99-2.28-60.77-5.15-13.09-5.35-26.33-9.37-39.07-2.17-6.89-7.34-8.26-13.66-7.63,3.46-4.22,7.62-4.98,12.43-2.49Z"/>
  <path class="cls-12" d="M399.06,488.21c-5.13-2.02-10.18-4.32-15.44-5.96-2.84-.88-4.87-2.85-4.73-5.03,1.06-16.11-12.66-11.44-20.54-14.88-1.07-.47-2.44-.21-3.67-.36-21.52-2.57-28.92-10.72-29.02-32.74-.04-7.83-1.06-15.48,1.41-23.57,4.49-14.7,18.34-15.79,28.62-21.47,13.7-7.56,28.49-13.05,45.01-10.46,5.24,.82,9.99,.86,10.84,7.48,.15,1.17,.66,3.15,1.3,3.27,16.18,3.13,11.48,17.24,12.65,26.75,1.08,8.68,2.2,16.91,5.88,24.78,1.66,14.91,3.32,29.82,4.97,44.73-9.8-5.6-7.95-16.83-12.63-25.34-9.89,5-12.14,18.79-24.29,21.27,2.44,6.05,7.82,5.2,11.62,7.19,2.44,1.27,5.98,2.81,.91,5.54-4.3-.51-8.8,1.22-12.9-1.23Z"/>
  <path class="cls-21" d="M413.98,488.2c-4.44-5.15-14.76,.6-16.87-9.18-.38-1.74-4.86-2.94,.49-4.43,13.04-3.63,16.33-17.45,26.76-24.95,3.84,9.97,7.91,20.55,11.99,31.14-.67,11.09-9.43,6.12-14.97,7.54-2.49,1.59-4.96,1.63-7.4-.12Z"/>
  <path class="cls-22" d="M413.98,488.2c2.47,.04,4.93,.08,7.4,.12,.02,.8,.04,1.6,.05,2.4-6.64,.01-13.28,.03-19.92,.04-7.42-1.13-15.37,2.4-22.37-2.49,6.64-.02,13.28-.05,19.92-.07,4.97,0,9.95,0,14.92,0Z"/>
  <path class="cls-42" d="M88.34,311.78c.01,2.49,.02,4.99,.03,7.48-.84,4.96-1.69,9.92-2.54,14.88-3.12,5.09-.39,14.07-9.92,14.9-.01-3.3-.03-6.6-.04-9.9,.01-2.5,.03-4.99,.04-7.49,8.41-3.95,5.77-14.82,12.43-19.87Z"/>
  <path class="cls-30" d="M75.91,349.03c6.72-2.7,5.52-10.66,9.92-14.9,1.58,9.11-5.01,15.13-8.48,22.55-2.69-2.25-.9-5.18-1.45-7.65Z"/>
  <path class="cls-33" d="M257.36,18.49c1.66,0,3.32,0,4.98,.01,5.06,18.73,4.3,38.52,9.12,57.07,5.63,21.65,4.86,45.03,16.94,65,.93,1.53,.86,4.01,.51,5.91-1.6,8.85-.8,16.07,9.95,18.36,1.62,.34,3.12,2.7,4.1,4.44,9.97,17.87,28.66,27.95,40.2,43.49,9.28,12.49,23.45,13.05,32.97,22.35,.28,.27,1,.58,1.05,.52,8.98-11.63,25.33-4.76,35.38-14.25,4.95-4.68,11.27-10.6,17.95-8.94,8.22,2.04,9.36,9.63,5.8,17.31-9.58-2.22-16.99-2.85-25.62,6.33-7.83,8.33-21.08,12.22-33.11,15.32-1.4,.36-3.68,.14-4.56-.77-9.15-9.47-20.1-16.82-28.65-27.24-9.54-11.64-21.99-20.88-33.09-31.26-10.38-9.71-20.76-19.36-27.93-31.98-4.87-8.59-1.23-18.01-4.39-27.23-8.67-25.24-10.67-52.04-14.21-78.43-1.63-12.16-2.44-24.52-7.41-36Z"/>
  <path class="cls-21" d="M290.96,270.08c.3,5.86-3.42,6.42-6.8,7.57-6.36,2.17-9.46,8.54-15.24,11.92-5.79,3.39-11.34,13.38-16.76,10.18-7.52-4.44-17.05-9.51-20.04-19.12-3.04-9.77-5.09-19.8-3.16-30.42,1.92-10.55,11.96-12.57,17.75-18.97,7.42,6.93,19.64,4.39,26.08,12.86,6.39,8.41,12.14,17.3,18.17,25.98Z"/>
  <path class="cls-43" d="M343.79,428.74c-.31-5.56,16.27-29.34,20.42-29.51,2.67-.11,2.89-.57,3.93-2.52,7.89-14.76,17.89-15.28,26.48-1.23,2.21,3.62,3.07,.23,4.45-.14,2.11-.57,4,.73,3.41,2.1-5.59,13.12-2.75,27.98-8.36,40.66-1.2,2.71-8.15,6.94-12.25,8.35-3.63,1.24-11-.18-14.78-5.94-2.98-4.55-7.19-7.32-13.67-6.46-4.24,.56-7.39-3.44-9.63-5.31Z"/>
</svg>