<svg id="Layer_1" x="0px" y="0px" height="99vh" viewBox="0 0 2000 1200" enable-background="new 0 0 2000 1200" xml:space="preserve"><g><g id="purplebg" opacity="0.65"><polygon fill="#202333" points="1585,596.3 1666,646 1750,597.3 1668,548  "></polygon><polygon fill="#202333" points="1464,527.3 1545,577 1629,528.3 1547,479  "></polygon><polygon fill="#202333" points="1047,224.3 1128,274 1212,225.3 1130,176  "></polygon><polygon fill="#202333" points="1720,524.3 1801,574 1885,525.3 1803,476  "></polygon><polygon fill="#202333" points="1831,596.3 1912,646 1996,597.3 1914,548  "></polygon><path fill="#202333" d="M1680.3,496.1l0.8,1.3l-2.1,1.2l-0.8-1.3L1680.3,496.1z M1674.3,499.6l0.8,1.3l2.1-1.2l-0.8-1.3 L1674.3,499.6z M1670.5,501.8l0.8,1.3l2.1-1.2l-0.8-1.3L1670.5,501.8z M1689.7,490.7l0.8,1.3l2.1-1.2l-0.8-1.3L1689.7,490.7z  M1685.8,492.9l0.8,1.3l2.1-1.2l-0.8-1.3L1685.8,492.9z M1682,495.1l0.8,1.3l2.1-1.2l-0.8-1.3L1682,495.1z M1701.2,484l0.8,1.3 l2.1-1.2l-0.8-1.3L1701.2,484z M1697.3,486.2l0.8,1.3l2.1-1.2l-0.8-1.3L1697.3,486.2z M1693.5,488.4l0.8,1.3l2.1-1.2l-0.8-1.3 L1693.5,488.4z M1712.7,477.3l0.8,1.3l2.1-1.2l-0.8-1.3L1712.7,477.3z M1708.9,479.5l0.8,1.3l2.1-1.2l-0.8-1.3L1708.9,479.5z  M1705,481.8l0.8,1.3l2.1-1.2l-0.8-1.3L1705,481.8z M1724.2,470.6l0.8,1.3l2.1-1.2l-0.8-1.3L1724.2,470.6z M1720.4,472.9l0.8,1.3 l2.1-1.2l-0.8-1.3L1720.4,472.9z M1716.6,475.1l0.8,1.3l2.1-1.2l-0.8-1.3L1716.6,475.1z M1735.8,464l0.8,1.3l2.1-1.2l-0.8-1.3 L1735.8,464z M1731.9,466.2l0.8,1.3l2.1-1.2l-0.8-1.3L1731.9,466.2z M1728.1,468.4l0.8,1.3l2.1-1.2l-0.8-1.3L1728.1,468.4z  M1730.5,445.2l0.8-1.3l-2.1-1.3l-0.8,1.3L1730.5,445.2z M1734.3,447.5l0.8-1.3l-2.1-1.3l-0.8,1.3L1734.3,447.5z M1738,449.7 l0.8-1.3l-2.1-1.3l-0.8,1.3L1738,449.7z M1719.3,438.5l0.8-1.3l-2.1-1.3l-0.8,1.3L1719.3,438.5z M1723.1,440.7l0.8-1.3l-2.1-1.3 l-0.8,1.3L1723.1,440.7z M1726.8,443l0.8-1.3l-2.1-1.3l-0.8,1.3L1726.8,443z M1708.1,431.7l0.8-1.3l-2.1-1.3l-0.8,1.3 L1708.1,431.7z M1711.8,434l0.8-1.3l-2.1-1.3l-0.8,1.3L1711.8,434z M1715.6,436.2l0.8-1.3l-2.1-1.3l-0.8,1.3L1715.6,436.2z  M1696.9,425l0.8-1.3l-2.1-1.3l-0.8,1.3L1696.9,425z M1700.6,427.2l0.8-1.3l-2.1-1.3l-0.8,1.3L1700.6,427.2z M1704.3,429.5 l0.8-1.3l-2.1-1.3l-0.8,1.3L1704.3,429.5z M1685.7,418.2l0.8-1.3l-2.1-1.3l-0.8,1.3L1685.7,418.2z M1689.4,420.5l0.8-1.3l-2.1-1.3 l-0.8,1.3L1689.4,420.5z M1693.1,422.7l0.8-1.3l-2.1-1.3l-0.8,1.3L1693.1,422.7z M1674.4,411.5l0.8-1.3l-2.1-1.3l-0.8,1.3 L1674.4,411.5z M1678.2,413.7l0.8-1.3l-2.1-1.3l-0.8,1.3L1678.2,413.7z M1681.9,416l0.8-1.3l-2.1-1.3l-0.8,1.3L1681.9,416z  M1656,414.6l-0.8-1.3l-2.1,1.2l0.8,1.3L1656,414.6z M1659.8,412.4l-0.8-1.3l-2.1,1.2l0.8,1.3L1659.8,412.4z M1663.6,410.2 l-0.8-1.3l-2.1,1.2l0.8,1.3L1663.6,410.2z M1644.6,421.2l-0.8-1.3l-2.1,1.2l0.8,1.3L1644.6,421.2z M1648.4,419l-0.8-1.3l-2.1,1.2 l0.8,1.3L1648.4,419z M1652.2,416.8l-0.8-1.3l-2.1,1.2l0.8,1.3L1652.2,416.8z M1633.2,427.9l-0.8-1.3l-2.1,1.2l0.8,1.3 L1633.2,427.9z M1637,425.7l-0.8-1.3l-2.1,1.2l0.8,1.3L1637,425.7z M1640.8,423.5l-0.8-1.3l-2.1,1.2l0.8,1.3L1640.8,423.5z  M1621.8,434.5l-0.8-1.3l-2.1,1.2l0.8,1.3L1621.8,434.5z M1625.6,432.3l-0.8-1.3l-2.1,1.2l0.8,1.3L1625.6,432.3z M1629.4,430.1 l-0.8-1.3l-2.1,1.2l0.8,1.3L1629.4,430.1z M1610.5,441.1l-0.8-1.3l-2.1,1.2l0.8,1.3L1610.5,441.1z M1614.2,438.9l-0.8-1.3 l-2.1,1.2l0.8,1.3L1614.2,438.9z M1618,436.7l-0.8-1.3l-2.1,1.2l0.8,1.3L1618,436.7z M1599.1,447.8l-0.8-1.3l-2.1,1.2l0.8,1.3 L1599.1,447.8z M1602.9,445.5l-0.8-1.3l-2.1,1.2l0.8,1.3L1602.9,445.5z M1606.6,443.3l-0.8-1.3l-2.1,1.2l0.8,1.3L1606.6,443.3z  M1604.2,466.5l-0.8,1.3l2.1,1.3l0.8-1.3L1604.2,466.5z M1600.5,464.2l-0.8,1.3l2.1,1.3l0.8-1.3L1600.5,464.2z M1596.8,462 l-0.8,1.3l2.1,1.3l0.8-1.3L1596.8,462z M1615.3,473.3l-0.8,1.3l2.1,1.3l0.8-1.3L1615.3,473.3z M1611.6,471l-0.8,1.3l2.1,1.3 l0.8-1.3L1611.6,471z M1607.9,468.8l-0.8,1.3l2.1,1.3l0.8-1.3L1607.9,468.8z M1626.3,480.1l-0.8,1.3l2.1,1.3l0.8-1.3L1626.3,480.1 z M1622.7,477.8l-0.8,1.3l2.1,1.3l0.8-1.3L1622.7,477.8z M1619,475.5l-0.8,1.3l2.1,1.3l0.8-1.3L1619,475.5z M1637.4,486.9 l-0.8,1.3l2.1,1.3l0.8-1.3L1637.4,486.9z M1633.7,484.6l-0.8,1.3l2.1,1.3l0.8-1.3L1633.7,484.6z M1630.1,482.3l-0.8,1.3l2.1,1.3 l0.8-1.3L1630.1,482.3z M1648.5,493.7l-0.8,1.3l2.1,1.3l0.8-1.3L1648.5,493.7z M1644.8,491.4l-0.8,1.3l2.1,1.3l0.8-1.3 L1644.8,491.4z M1641.1,489.1l-0.8,1.3l2.1,1.3l0.8-1.3L1641.1,489.1z M1659.6,500.4l-0.8,1.3l2.1,1.3l0.8-1.3L1659.6,500.4z  M1655.9,498.2l-0.8,1.3l2.1,1.3l0.8-1.3L1655.9,498.2z M1652.2,495.9l-0.8,1.3l2.1,1.3l0.8-1.3L1652.2,495.9z M1744.5,460.3 l-0.8-1.3l-3.7,2.1l0.8,1.3L1744.5,460.3z M1751,456.3c-0.1-0.1-0.2-0.1-0.4-0.2c-0.3-0.2-0.8-0.5-1.2-0.8 c-0.9-0.5-1.8-1.1-1.8-1.1l-0.8,1.3c0,0,0.4,0.2,0.7,0.4c0.2,0.1,0.4,0.2,0.5,0.3l0,0l0,0l0,0l0,0c0,0,0,0,0,0c0,0,0,0,0,0 l-1.5,0.8l0.8,1.3L1751,456.3C1751.1,456.4,1751.1,456.4,1751,456.3z M1741,450.3l-0.8,1.3l3.6,2.2l0.8-1.3L1741,450.3z  M1670.3,407.7l-0.8,1.3l1.3,0.8l0.8-1.3L1670.3,407.7z M1668,406.4c0,0-0.1,0-0.1,0.1c-0.1,0.1-0.3,0.2-0.4,0.3 c-0.3,0.2-0.6,0.4-0.6,0.4l0.8,1.3c0,0,0.1-0.1,0.3-0.1c0.1,0,0.1-0.1,0.2-0.1l0,0l0,0l0,0l0,0c0,0,0,0,0,0c0,0,0,0,0,0l0.5,0.3 l0.8-1.3L1668,406.4C1668.1,406.3,1668,406.3,1668,406.4z M1664.5,408.4l0.8,1.3l1.3-0.7l-0.8-1.3L1664.5,408.4z M1590.4,451.4 l0.8,1.3l3.6-2.1l-0.8-1.3L1590.4,451.4z M1584,455.3c0.1,0.1,0.2,0.1,0.4,0.2c0.3,0.2,0.8,0.5,1.2,0.8c0.9,0.5,1.8,1.1,1.8,1.1 l0.8-1.3c0,0-0.4-0.2-0.7-0.4c-0.2-0.1-0.4-0.2-0.5-0.3l0,0l0,0l0,0l0,0c0,0,0,0,0,0c0,0,0,0,0,0l1.4-0.8l-0.8-1.3L1584,455.3 C1583.9,455.2,1583.9,455.3,1584,455.3z M1593.8,461.4l0.8-1.3l-3.6-2.2l-0.8,1.3L1593.8,461.4z M1663.7,504.3l0.8-1.3l-1.3-0.8 l-0.8,1.3L1663.7,504.3z M1666,505.6c0,0,0.1,0,0.1-0.1c0.1-0.1,0.3-0.2,0.4-0.3c0.3-0.2,0.6-0.4,0.6-0.4l-0.8-1.3 c0,0-0.1,0.1-0.3,0.1c-0.1,0-0.1,0.1-0.2,0.1l0,0l0,0l0,0l0,0c0,0,0,0,0,0c0,0,0,0,0,0l-0.5-0.3l-0.8,1.3L1666,505.6 C1665.9,505.7,1666,505.7,1666,505.6z M1669.5,503.6l-0.8-1.3l-1.3,0.7l0.8,1.3L1669.5,503.6z"></path><path fill="#202333" d="M1021.3,196.1l0.8,1.3l-2.1,1.2l-0.8-1.3L1021.3,196.1z M1015.3,199.6l0.8,1.3l2.1-1.2l-0.8-1.3 L1015.3,199.6z M1011.5,201.8l0.8,1.3l2.1-1.2l-0.8-1.3L1011.5,201.8z M1030.7,190.7l0.8,1.3l2.1-1.2l-0.8-1.3L1030.7,190.7z  M1026.8,192.9l0.8,1.3l2.1-1.2l-0.8-1.3L1026.8,192.9z M1023,195.1l0.8,1.3l2.1-1.2l-0.8-1.3L1023,195.1z M1042.2,184l0.8,1.3 l2.1-1.2l-0.8-1.3L1042.2,184z M1038.3,186.2l0.8,1.3l2.1-1.2l-0.8-1.3L1038.3,186.2z M1034.5,188.4l0.8,1.3l2.1-1.2l-0.8-1.3 L1034.5,188.4z M1053.7,177.3l0.8,1.3l2.1-1.2l-0.8-1.3L1053.7,177.3z M1049.9,179.5l0.8,1.3l2.1-1.2l-0.8-1.3L1049.9,179.5z  M1046,181.8l0.8,1.3l2.1-1.2l-0.8-1.3L1046,181.8z M1065.2,170.6l0.8,1.3l2.1-1.2l-0.8-1.3L1065.2,170.6z M1061.4,172.9l0.8,1.3 l2.1-1.2l-0.8-1.3L1061.4,172.9z M1057.6,175.1l0.8,1.3l2.1-1.2l-0.8-1.3L1057.6,175.1z M1076.7,164l0.8,1.3l2.1-1.2l-0.8-1.3 L1076.7,164z M1072.9,166.2l0.8,1.3l2.1-1.2l-0.8-1.3L1072.9,166.2z M1069.1,168.4l0.8,1.3l2.1-1.2l-0.8-1.3L1069.1,168.4z  M1071.5,145.2l0.8-1.3l-2.1-1.3l-0.8,1.3L1071.5,145.2z M1075.3,147.5l0.8-1.3l-2.1-1.3l-0.8,1.3L1075.3,147.5z M1079,149.7 l0.8-1.3l-2.1-1.3l-0.8,1.3L1079,149.7z M1060.3,138.5l0.8-1.3l-2.1-1.3l-0.8,1.3L1060.3,138.5z M1064,140.7l0.8-1.3l-2.1-1.3 l-0.8,1.3L1064,140.7z M1067.8,143l0.8-1.3l-2.1-1.3l-0.8,1.3L1067.8,143z M1049.1,131.7l0.8-1.3l-2.1-1.3l-0.8,1.3L1049.1,131.7z  M1052.8,134l0.8-1.3l-2.1-1.3l-0.8,1.3L1052.8,134z M1056.6,136.2l0.8-1.3l-2.1-1.3l-0.8,1.3L1056.6,136.2z M1037.9,125l0.8-1.3 l-2.1-1.3l-0.8,1.3L1037.9,125z M1041.6,127.2l0.8-1.3l-2.1-1.3l-0.8,1.3L1041.6,127.2z M1045.3,129.5l0.8-1.3l-2.1-1.3l-0.8,1.3 L1045.3,129.5z M1026.7,118.2l0.8-1.3l-2.1-1.3l-0.8,1.3L1026.7,118.2z M1030.4,120.5l0.8-1.3l-2.1-1.3l-0.8,1.3L1030.4,120.5z  M1034.1,122.7l0.8-1.3l-2.1-1.3l-0.8,1.3L1034.1,122.7z M1015.4,111.5l0.8-1.3l-2.1-1.3l-0.8,1.3L1015.4,111.5z M1019.2,113.7 l0.8-1.3l-2.1-1.3l-0.8,1.3L1019.2,113.7z M1022.9,116l0.8-1.3l-2.1-1.3l-0.8,1.3L1022.9,116z M997,114.6l-0.8-1.3l-2.1,1.2 l0.8,1.3L997,114.6z M1000.8,112.4l-0.8-1.3l-2.1,1.2l0.8,1.3L1000.8,112.4z M1004.6,110.2l-0.8-1.3l-2.1,1.2l0.8,1.3 L1004.6,110.2z M985.6,121.2l-0.8-1.3l-2.1,1.2l0.8,1.3L985.6,121.2z M989.4,119l-0.8-1.3l-2.1,1.2l0.8,1.3L989.4,119z  M993.2,116.8l-0.8-1.3l-2.1,1.2l0.8,1.3L993.2,116.8z M974.2,127.9l-0.8-1.3l-2.1,1.2l0.8,1.3L974.2,127.9z M978,125.7l-0.8-1.3 l-2.1,1.2l0.8,1.3L978,125.7z M981.8,123.5l-0.8-1.3l-2.1,1.2l0.8,1.3L981.8,123.5z M962.8,134.5l-0.8-1.3l-2.1,1.2l0.8,1.3 L962.8,134.5z M966.6,132.3l-0.8-1.3l-2.1,1.2l0.8,1.3L966.6,132.3z M970.4,130.1l-0.8-1.3l-2.1,1.2l0.8,1.3L970.4,130.1z  M951.4,141.1l-0.8-1.3l-2.1,1.2l0.8,1.3L951.4,141.1z M955.2,138.9l-0.8-1.3l-2.1,1.2l0.8,1.3L955.2,138.9z M959,136.7l-0.8-1.3 l-2.1,1.2l0.8,1.3L959,136.7z M940.1,147.8l-0.8-1.3l-2.1,1.2l0.8,1.3L940.1,147.8z M943.9,145.5l-0.8-1.3l-2.1,1.2l0.8,1.3 L943.9,145.5z M947.6,143.3l-0.8-1.3l-2.1,1.2l0.8,1.3L947.6,143.3z M945.2,166.5l-0.8,1.3l2.1,1.3l0.8-1.3L945.2,166.5z  M941.5,164.2l-0.8,1.3l2.1,1.3l0.8-1.3L941.5,164.2z M937.8,162l-0.8,1.3l2.1,1.3l0.8-1.3L937.8,162z M956.3,173.3l-0.8,1.3 l2.1,1.3l0.8-1.3L956.3,173.3z M952.6,171l-0.8,1.3l2.1,1.3l0.8-1.3L952.6,171z M948.9,168.8l-0.8,1.3l2.1,1.3l0.8-1.3 L948.9,168.8z M967.3,180.1l-0.8,1.3l2.1,1.3l0.8-1.3L967.3,180.1z M963.7,177.8l-0.8,1.3l2.1,1.3l0.8-1.3L963.7,177.8z  M960,175.5l-0.8,1.3l2.1,1.3l0.8-1.3L960,175.5z M978.4,186.9l-0.8,1.3l2.1,1.3l0.8-1.3L978.4,186.9z M974.7,184.6l-0.8,1.3 l2.1,1.3l0.8-1.3L974.7,184.6z M971.1,182.3l-0.8,1.3l2.1,1.3l0.8-1.3L971.1,182.3z M989.5,193.7l-0.8,1.3l2.1,1.3l0.8-1.3 L989.5,193.7z M985.8,191.4l-0.8,1.3l2.1,1.3l0.8-1.3L985.8,191.4z M982.1,189.1l-0.8,1.3l2.1,1.3l0.8-1.3L982.1,189.1z  M1000.6,200.4l-0.8,1.3l2.1,1.3l0.8-1.3L1000.6,200.4z M996.9,198.2l-0.8,1.3l2.1,1.3l0.8-1.3L996.9,198.2z M993.2,195.9 l-0.8,1.3l2.1,1.3l0.8-1.3L993.2,195.9z M1085.5,160.3l-0.8-1.3l-3.7,2.1l0.8,1.3L1085.5,160.3z M1092,156.3 c-0.1-0.1-0.2-0.1-0.4-0.2c-0.3-0.2-0.8-0.5-1.2-0.8c-0.9-0.5-1.8-1.1-1.8-1.1l-0.8,1.3c0,0,0.4,0.2,0.7,0.4 c0.2,0.1,0.4,0.2,0.5,0.3l0,0l0,0l0,0l0,0c0,0,0,0,0,0c0,0,0,0,0,0l-1.5,0.8l0.8,1.3L1092,156.3 C1092.1,156.4,1092.1,156.4,1092,156.3z M1082,150.3l-0.8,1.3l3.6,2.2l0.8-1.3L1082,150.3z M1011.3,107.7l-0.8,1.3l1.3,0.8 l0.8-1.3L1011.3,107.7z M1009,106.4c0,0-0.1,0-0.1,0.1c-0.1,0.1-0.3,0.2-0.4,0.3c-0.3,0.2-0.6,0.4-0.6,0.4l0.8,1.3 c0,0,0.1-0.1,0.3-0.1c0.1,0,0.1-0.1,0.2-0.1l0,0l0,0l0,0l0,0c0,0,0,0,0,0c0,0,0,0,0,0l0.5,0.3l0.8-1.3L1009,106.4 C1009.1,106.3,1009,106.3,1009,106.4z M1005.5,108.4l0.8,1.3l1.3-0.7l-0.8-1.3L1005.5,108.4z M931.4,151.4l0.8,1.3l3.6-2.1 l-0.8-1.3L931.4,151.4z M925,155.3c0.1,0.1,0.2,0.1,0.4,0.2c0.3,0.2,0.8,0.5,1.2,0.8c0.9,0.5,1.8,1.1,1.8,1.1l0.8-1.3 c0,0-0.4-0.2-0.7-0.4c-0.2-0.1-0.4-0.2-0.5-0.3l0,0l0,0l0,0l0,0c0,0,0,0,0,0c0,0,0,0,0,0l1.4-0.8l-0.8-1.3L925,155.3 C924.9,155.2,924.9,155.3,925,155.3z M934.8,161.4l0.8-1.3l-3.6-2.2l-0.8,1.3L934.8,161.4z M1004.6,204.3l0.8-1.3l-1.3-0.8 l-0.8,1.3L1004.6,204.3z M1007,205.6c0,0,0.1-0.1,0.1-0.1c0.1-0.1,0.3-0.2,0.4-0.3c0.3-0.2,0.6-0.4,0.6-0.4l-0.8-1.3 c0,0-0.1,0.1-0.3,0.1c-0.1,0-0.1,0.1-0.2,0.1l0,0l0,0l0,0l0,0c0,0,0,0,0,0c0,0,0,0,0,0l-0.5-0.3l-0.8,1.3L1007,205.6 C1006.9,205.7,1007,205.7,1007,205.6z M1010.5,203.6l-0.8-1.3l-1.3,0.7l0.8,1.3L1010.5,203.6z"></path><polygon fill="#202333" points="881,1022.3 962,1072 1046,1023.3 964,974  "></polygon><path fill="#202333" d="M855.3,994.1l0.8,1.3l-2.1,1.2l-0.8-1.3L855.3,994.1z M849.3,997.6l0.8,1.3l2.1-1.2l-0.8-1.3L849.3,997.6z  M845.5,999.8l0.8,1.3l2.1-1.2l-0.8-1.3L845.5,999.8z M864.7,988.7l0.8,1.3l2.1-1.2l-0.8-1.3L864.7,988.7z M860.8,990.9l0.8,1.3 l2.1-1.2l-0.8-1.3L860.8,990.9z M857,993.1l0.8,1.3l2.1-1.2l-0.8-1.3L857,993.1z M876.2,982l0.8,1.3l2.1-1.2l-0.8-1.3L876.2,982z  M872.3,984.2l0.8,1.3l2.1-1.2l-0.8-1.3L872.3,984.2z M868.5,986.4l0.8,1.3l2.1-1.2l-0.8-1.3L868.5,986.4z M887.7,975.3l0.8,1.3 l2.1-1.2l-0.8-1.3L887.7,975.3z M883.9,977.5l0.8,1.3l2.1-1.2l-0.8-1.3L883.9,977.5z M880,979.8l0.8,1.3l2.1-1.2l-0.8-1.3 L880,979.8z M899.2,968.7l0.8,1.3l2.1-1.2l-0.8-1.3L899.2,968.7z M895.4,970.9l0.8,1.3l2.1-1.2l-0.8-1.3L895.4,970.9z  M891.6,973.1l0.8,1.3l2.1-1.2l-0.8-1.3L891.6,973.1z M910.7,962l0.8,1.3l2.1-1.2l-0.8-1.3L910.7,962z M906.9,964.2l0.8,1.3 l2.1-1.2l-0.8-1.3L906.9,964.2z M903.1,966.4l0.8,1.3l2.1-1.2l-0.8-1.3L903.1,966.4z M905.5,943.2l0.8-1.3l-2.1-1.3l-0.8,1.3 L905.5,943.2z M909.3,945.5l0.8-1.3L908,943l-0.8,1.3L909.3,945.5z M913,947.7l0.8-1.3l-2.1-1.3l-0.8,1.3L913,947.7z M894.3,936.5 l0.8-1.3L893,934l-0.8,1.3L894.3,936.5z M898,938.7l0.8-1.3l-2.1-1.3l-0.8,1.3L898,938.7z M901.8,941l0.8-1.3l-2.1-1.3l-0.8,1.3 L901.8,941z M883.1,929.7l0.8-1.3l-2.1-1.3l-0.8,1.3L883.1,929.7z M886.8,932l0.8-1.3l-2.1-1.3l-0.8,1.3L886.8,932z M890.6,934.2 l0.8-1.3l-2.1-1.3l-0.8,1.3L890.6,934.2z M871.9,923l0.8-1.3l-2.1-1.3l-0.8,1.3L871.9,923z M875.6,925.2l0.8-1.3l-2.1-1.3 l-0.8,1.3L875.6,925.2z M879.3,927.5l0.8-1.3l-2.1-1.3l-0.8,1.3L879.3,927.5z M860.7,916.2l0.8-1.3l-2.1-1.3l-0.8,1.3L860.7,916.2 z M864.4,918.5l0.8-1.3l-2.1-1.3l-0.8,1.3L864.4,918.5z M868.1,920.7l0.8-1.3l-2.1-1.3l-0.8,1.3L868.1,920.7z M849.4,909.5 l0.8-1.3l-2.1-1.3l-0.8,1.3L849.4,909.5z M853.2,911.7l0.8-1.3l-2.1-1.3l-0.8,1.3L853.2,911.7z M856.9,914l0.8-1.3l-2.1-1.3 l-0.8,1.3L856.9,914z M831,912.6l-0.8-1.3l-2.1,1.2l0.8,1.3L831,912.6z M834.8,910.4l-0.8-1.3l-2.1,1.2l0.8,1.3L834.8,910.4z  M838.6,908.2l-0.8-1.3l-2.1,1.2l0.8,1.3L838.6,908.2z M819.6,919.2l-0.8-1.3l-2.1,1.2l0.8,1.3L819.6,919.2z M823.4,917l-0.8-1.3 l-2.1,1.2l0.8,1.3L823.4,917z M827.2,914.8l-0.8-1.3l-2.1,1.2l0.8,1.3L827.2,914.8z M808.2,925.9l-0.8-1.3l-2.1,1.2l0.8,1.3 L808.2,925.9z M812,923.7l-0.8-1.3l-2.1,1.2l0.8,1.3L812,923.7z M815.8,921.5l-0.8-1.3l-2.1,1.2l0.8,1.3L815.8,921.5z  M796.8,932.5l-0.8-1.3l-2.1,1.2l0.8,1.3L796.8,932.5z M800.6,930.3l-0.8-1.3l-2.1,1.2l0.8,1.3L800.6,930.3z M804.4,928.1 l-0.8-1.3l-2.1,1.2l0.8,1.3L804.4,928.1z M785.4,939.1l-0.8-1.3l-2.1,1.2l0.8,1.3L785.4,939.1z M789.2,936.9l-0.8-1.3l-2.1,1.2 l0.8,1.3L789.2,936.9z M793,934.7l-0.8-1.3l-2.1,1.2l0.8,1.3L793,934.7z M774.1,945.8l-0.8-1.3l-2.1,1.2l0.8,1.3L774.1,945.8z  M777.9,943.5l-0.8-1.3l-2.1,1.2l0.8,1.3L777.9,943.5z M781.6,941.3l-0.8-1.3l-2.1,1.2l0.8,1.3L781.6,941.3z M779.2,964.5 l-0.8,1.3l2.1,1.3l0.8-1.3L779.2,964.5z M775.5,962.2l-0.8,1.3l2.1,1.3l0.8-1.3L775.5,962.2z M771.8,960l-0.8,1.3l2.1,1.3l0.8-1.3 L771.8,960z M790.3,971.3l-0.8,1.3l2.1,1.3l0.8-1.3L790.3,971.3z M786.6,969l-0.8,1.3l2.1,1.3l0.8-1.3L786.6,969z M782.9,966.8 l-0.8,1.3l2.1,1.3l0.8-1.3L782.9,966.8z M801.3,978.1l-0.8,1.3l2.1,1.3l0.8-1.3L801.3,978.1z M797.7,975.8l-0.8,1.3l2.1,1.3 l0.8-1.3L797.7,975.8z M794,973.5l-0.8,1.3l2.1,1.3l0.8-1.3L794,973.5z M812.4,984.9l-0.8,1.3l2.1,1.3l0.8-1.3L812.4,984.9z  M808.7,982.6l-0.8,1.3l2.1,1.3l0.8-1.3L808.7,982.6z M805.1,980.3l-0.8,1.3l2.1,1.3l0.8-1.3L805.1,980.3z M823.5,991.7l-0.8,1.3 l2.1,1.3l0.8-1.3L823.5,991.7z M819.8,989.4l-0.8,1.3l2.1,1.3l0.8-1.3L819.8,989.4z M816.1,987.1l-0.8,1.3l2.1,1.3l0.8-1.3 L816.1,987.1z M834.6,998.4l-0.8,1.3l2.1,1.3l0.8-1.3L834.6,998.4z M830.9,996.2l-0.8,1.3l2.1,1.3l0.8-1.3L830.9,996.2z  M827.2,993.9l-0.8,1.3l2.1,1.3l0.8-1.3L827.2,993.9z M919.5,958.3l-0.8-1.3l-3.7,2.1l0.8,1.3L919.5,958.3z M926,954.3 c-0.1-0.1-0.2-0.1-0.4-0.2c-0.3-0.2-0.8-0.5-1.2-0.8c-0.9-0.5-1.8-1.1-1.8-1.1l-0.8,1.3c0,0,0.4,0.2,0.7,0.4 c0.2,0.1,0.4,0.2,0.5,0.3l0,0l0,0l0,0l0,0c0,0,0,0,0,0c0,0,0,0,0,0l-1.5,0.8l0.8,1.3L926,954.3C926.1,954.4,926.1,954.4,926,954.3 z M916,948.3l-0.8,1.3l3.6,2.2l0.8-1.3L916,948.3z M845.3,905.7l-0.8,1.3l1.3,0.8l0.8-1.3L845.3,905.7z M843,904.4 c0,0-0.1,0-0.1,0.1c-0.1,0.1-0.3,0.2-0.4,0.3c-0.3,0.2-0.6,0.4-0.6,0.4l0.8,1.3c0,0,0.1-0.1,0.3-0.1c0.1,0,0.1-0.1,0.2-0.1l0,0 l0,0l0,0l0,0c0,0,0,0,0,0c0,0,0,0,0,0l0.5,0.3l0.8-1.3L843,904.4C843.1,904.3,843,904.3,843,904.4z M839.5,906.4l0.8,1.3l1.3-0.7 l-0.8-1.3L839.5,906.4z M765.4,949.4l0.8,1.3l3.6-2.1l-0.8-1.3L765.4,949.4z M759,953.3c0.1,0.1,0.2,0.1,0.4,0.2 c0.3,0.2,0.8,0.5,1.2,0.8c0.9,0.5,1.8,1.1,1.8,1.1l0.8-1.3c0,0-0.4-0.2-0.7-0.4c-0.2-0.1-0.4-0.2-0.5-0.3l0,0l0,0l0,0l0,0 c0,0,0,0,0,0c0,0,0,0,0,0l1.4-0.8l-0.8-1.3L759,953.3C758.9,953.2,758.9,953.3,759,953.3z M768.8,959.4l0.8-1.3l-3.6-2.2l-0.8,1.3 L768.8,959.4z M838.6,1002.3l0.8-1.3l-1.3-0.8l-0.8,1.3L838.6,1002.3z M841,1003.6c0,0,0.1,0,0.1-0.1c0.1-0.1,0.3-0.2,0.4-0.3 c0.3-0.2,0.6-0.4,0.6-0.4l-0.8-1.3c0,0-0.1,0.1-0.3,0.1c-0.1,0-0.1,0.1-0.2,0.1l0,0l0,0l0,0l0,0c0,0,0,0,0,0c0,0,0,0,0,0l-0.5-0.3 l-0.8,1.3L841,1003.6C840.9,1003.7,841,1003.7,841,1003.6z M844.5,1001.6l-0.8-1.3l-1.3,0.7l0.8,1.3L844.5,1001.6z"></path><path fill="#202333" d="M841.3,1136.1l0.8,1.3l-2.1,1.2l-0.8-1.3L841.3,1136.1z M835.3,1139.6l0.8,1.3l2.1-1.2l-0.8-1.3 L835.3,1139.6z M831.5,1141.8l0.8,1.3l2.1-1.2l-0.8-1.3L831.5,1141.8z M850.7,1130.7l0.8,1.3l2.1-1.2l-0.8-1.3L850.7,1130.7z  M846.8,1132.9l0.8,1.3l2.1-1.2l-0.8-1.3L846.8,1132.9z M843,1135.1l0.8,1.3l2.1-1.2l-0.8-1.3L843,1135.1z M862.2,1124l0.8,1.3 l2.1-1.2l-0.8-1.3L862.2,1124z M858.3,1126.2l0.8,1.3l2.1-1.2l-0.8-1.3L858.3,1126.2z M854.5,1128.4l0.8,1.3l2.1-1.2l-0.8-1.3 L854.5,1128.4z M873.7,1117.3l0.8,1.3l2.1-1.2l-0.8-1.3L873.7,1117.3z M869.9,1119.5l0.8,1.3l2.1-1.2l-0.8-1.3L869.9,1119.5z  M866,1121.8l0.8,1.3l2.1-1.2l-0.8-1.3L866,1121.8z M885.2,1110.7l0.8,1.3l2.1-1.2l-0.8-1.3L885.2,1110.7z M881.4,1112.9l0.8,1.3 l2.1-1.2l-0.8-1.3L881.4,1112.9z M877.6,1115.1l0.8,1.3l2.1-1.2l-0.8-1.3L877.6,1115.1z M896.7,1104l0.8,1.3l2.1-1.2l-0.8-1.3 L896.7,1104z M892.9,1106.2l0.8,1.3l2.1-1.2l-0.8-1.3L892.9,1106.2z M889.1,1108.4l0.8,1.3l2.1-1.2l-0.8-1.3L889.1,1108.4z  M891.5,1085.2l0.8-1.3l-2.1-1.3l-0.8,1.3L891.5,1085.2z M895.3,1087.5l0.8-1.3l-2.1-1.3l-0.8,1.3L895.3,1087.5z M899,1089.7 l0.8-1.3l-2.1-1.3l-0.8,1.3L899,1089.7z M880.3,1078.5l0.8-1.3l-2.1-1.3l-0.8,1.3L880.3,1078.5z M884,1080.7l0.8-1.3l-2.1-1.3 l-0.8,1.3L884,1080.7z M887.8,1083l0.8-1.3l-2.1-1.3l-0.8,1.3L887.8,1083z M869.1,1071.7l0.8-1.3l-2.1-1.3l-0.8,1.3L869.1,1071.7z  M872.8,1074l0.8-1.3l-2.1-1.3l-0.8,1.3L872.8,1074z M876.6,1076.2l0.8-1.3l-2.1-1.3l-0.8,1.3L876.6,1076.2z M857.9,1065l0.8-1.3 l-2.1-1.3l-0.8,1.3L857.9,1065z M861.6,1067.2l0.8-1.3l-2.1-1.3l-0.8,1.3L861.6,1067.2z M865.3,1069.5l0.8-1.3l-2.1-1.3l-0.8,1.3 L865.3,1069.5z M846.7,1058.2l0.8-1.3l-2.1-1.3l-0.8,1.3L846.7,1058.2z M850.4,1060.5l0.8-1.3l-2.1-1.3l-0.8,1.3L850.4,1060.5z  M854.1,1062.7l0.8-1.3l-2.1-1.3l-0.8,1.3L854.1,1062.7z M835.4,1051.5l0.8-1.3l-2.1-1.3l-0.8,1.3L835.4,1051.5z M839.2,1053.7 l0.8-1.3l-2.1-1.3l-0.8,1.3L839.2,1053.7z M842.9,1056l0.8-1.3l-2.1-1.3l-0.8,1.3L842.9,1056z M817,1054.6l-0.8-1.3l-2.1,1.2 l0.8,1.3L817,1054.6z M820.8,1052.4l-0.8-1.3l-2.1,1.2l0.8,1.3L820.8,1052.4z M824.6,1050.2l-0.8-1.3l-2.1,1.2l0.8,1.3 L824.6,1050.2z M805.6,1061.2l-0.8-1.3l-2.1,1.2l0.8,1.3L805.6,1061.2z M809.4,1059l-0.8-1.3l-2.1,1.2l0.8,1.3L809.4,1059z  M813.2,1056.8l-0.8-1.3l-2.1,1.2l0.8,1.3L813.2,1056.8z M794.2,1067.9l-0.8-1.3l-2.1,1.2l0.8,1.3L794.2,1067.9z M798,1065.7 l-0.8-1.3l-2.1,1.2l0.8,1.3L798,1065.7z M801.8,1063.5l-0.8-1.3l-2.1,1.2l0.8,1.3L801.8,1063.5z M782.8,1074.5l-0.8-1.3l-2.1,1.2 l0.8,1.3L782.8,1074.5z M786.6,1072.3l-0.8-1.3l-2.1,1.2l0.8,1.3L786.6,1072.3z M790.4,1070.1l-0.8-1.3l-2.1,1.2l0.8,1.3 L790.4,1070.1z M771.4,1081.1l-0.8-1.3l-2.1,1.2l0.8,1.3L771.4,1081.1z M775.2,1078.9l-0.8-1.3l-2.1,1.2l0.8,1.3L775.2,1078.9z  M779,1076.7l-0.8-1.3l-2.1,1.2l0.8,1.3L779,1076.7z M760.1,1087.8l-0.8-1.3l-2.1,1.2l0.8,1.3L760.1,1087.8z M763.9,1085.5 l-0.8-1.3l-2.1,1.2l0.8,1.3L763.9,1085.5z M767.6,1083.3l-0.8-1.3l-2.1,1.2l0.8,1.3L767.6,1083.3z M765.2,1106.5l-0.8,1.3l2.1,1.3 l0.8-1.3L765.2,1106.5z M761.5,1104.2l-0.8,1.3l2.1,1.3l0.8-1.3L761.5,1104.2z M757.8,1102l-0.8,1.3l2.1,1.3l0.8-1.3L757.8,1102z  M776.3,1113.3l-0.8,1.3l2.1,1.3l0.8-1.3L776.3,1113.3z M772.6,1111l-0.8,1.3l2.1,1.3l0.8-1.3L772.6,1111z M768.9,1108.8l-0.8,1.3 l2.1,1.3l0.8-1.3L768.9,1108.8z M787.3,1120.1l-0.8,1.3l2.1,1.3l0.8-1.3L787.3,1120.1z M783.7,1117.8l-0.8,1.3l2.1,1.3l0.8-1.3 L783.7,1117.8z M780,1115.5l-0.8,1.3l2.1,1.3l0.8-1.3L780,1115.5z M798.4,1126.9l-0.8,1.3l2.1,1.3l0.8-1.3L798.4,1126.9z  M794.7,1124.6l-0.8,1.3l2.1,1.3l0.8-1.3L794.7,1124.6z M791.1,1122.3l-0.8,1.3l2.1,1.3l0.8-1.3L791.1,1122.3z M809.5,1133.7 l-0.8,1.3l2.1,1.3l0.8-1.3L809.5,1133.7z M805.8,1131.4l-0.8,1.3l2.1,1.3l0.8-1.3L805.8,1131.4z M802.1,1129.1l-0.8,1.3l2.1,1.3 l0.8-1.3L802.1,1129.1z M820.6,1140.4l-0.8,1.3l2.1,1.3l0.8-1.3L820.6,1140.4z M816.9,1138.2l-0.8,1.3l2.1,1.3l0.8-1.3 L816.9,1138.2z M813.2,1135.9l-0.8,1.3l2.1,1.3l0.8-1.3L813.2,1135.9z M905.5,1100.3l-0.8-1.3l-3.7,2.1l0.8,1.3L905.5,1100.3z  M912,1096.3c-0.1-0.1-0.2-0.1-0.4-0.2c-0.3-0.2-0.8-0.5-1.2-0.8c-0.9-0.5-1.8-1.1-1.8-1.1l-0.8,1.3c0,0,0.4,0.2,0.7,0.4 c0.2,0.1,0.4,0.2,0.5,0.3l0,0l0,0l0,0l0,0c0,0,0,0,0,0c0,0,0,0,0,0l-1.5,0.8l0.8,1.3L912,1096.3 C912.1,1096.4,912.1,1096.4,912,1096.3z M902,1090.3l-0.8,1.3l3.6,2.2l0.8-1.3L902,1090.3z M831.3,1047.7l-0.8,1.3l1.3,0.8 l0.8-1.3L831.3,1047.7z M829,1046.4c0,0-0.1,0-0.1,0.1c-0.1,0.1-0.3,0.2-0.4,0.3c-0.3,0.2-0.6,0.4-0.6,0.4l0.8,1.3 c0,0,0.1-0.1,0.3-0.1c0.1,0,0.1-0.1,0.2-0.1l0,0l0,0l0,0l0,0c0,0,0,0,0,0c0,0,0,0,0,0l0.5,0.3l0.8-1.3L829,1046.4 C829.1,1046.3,829,1046.3,829,1046.4z M825.5,1048.4l0.8,1.3l1.3-0.7l-0.8-1.3L825.5,1048.4z M751.4,1091.4l0.8,1.3l3.6-2.1 l-0.8-1.3L751.4,1091.4z M745,1095.3c0.1,0.1,0.2,0.1,0.4,0.2c0.3,0.2,0.8,0.5,1.2,0.8c0.9,0.5,1.8,1.1,1.8,1.1l0.8-1.3 c0,0-0.4-0.2-0.7-0.4c-0.2-0.1-0.4-0.2-0.5-0.3l0,0l0,0l0,0l0,0c0,0,0,0,0,0c0,0,0,0,0,0l1.4-0.8l-0.8-1.3L745,1095.3 C744.9,1095.2,744.9,1095.3,745,1095.3z M754.8,1101.4l0.8-1.3l-3.6-2.2l-0.8,1.3L754.8,1101.4z M824.6,1144.3l0.8-1.3l-1.3-0.8 l-0.8,1.3L824.6,1144.3z M827,1145.6c0,0,0.1-0.1,0.1-0.1c0.1-0.1,0.3-0.2,0.4-0.3c0.3-0.2,0.6-0.4,0.6-0.4l-0.8-1.3 c0,0-0.1,0.1-0.3,0.1c-0.1,0-0.1,0.1-0.2,0.1l0,0l0,0l0,0l0,0c0,0,0,0,0,0c0,0,0,0,0,0l-0.5-0.3l-0.8,1.3L827,1145.6 C826.9,1145.7,827,1145.7,827,1145.6z M830.5,1143.6l-0.8-1.3l-1.3,0.7l0.8,1.3L830.5,1143.6z"></path><path fill="#202333" d="M1559.3,998.1l0.8,1.3l-2.1,1.2l-0.8-1.3L1559.3,998.1z M1553.3,1001.6l0.8,1.3l2.1-1.2l-0.8-1.3 L1553.3,1001.6z M1549.5,1003.8l0.8,1.3l2.1-1.2l-0.8-1.3L1549.5,1003.8z M1568.7,992.7l0.8,1.3l2.1-1.2l-0.8-1.3L1568.7,992.7z  M1564.8,994.9l0.8,1.3l2.1-1.2l-0.8-1.3L1564.8,994.9z M1561,997.1l0.8,1.3l2.1-1.2l-0.8-1.3L1561,997.1z M1580.2,986l0.8,1.3 l2.1-1.2l-0.8-1.3L1580.2,986z M1576.3,988.2l0.8,1.3l2.1-1.2l-0.8-1.3L1576.3,988.2z M1572.5,990.4l0.8,1.3l2.1-1.2l-0.8-1.3 L1572.5,990.4z M1591.7,979.3l0.8,1.3l2.1-1.2l-0.8-1.3L1591.7,979.3z M1587.9,981.5l0.8,1.3l2.1-1.2l-0.8-1.3L1587.9,981.5z  M1584,983.8l0.8,1.3l2.1-1.2l-0.8-1.3L1584,983.8z M1603.2,972.7l0.8,1.3l2.1-1.2l-0.8-1.3L1603.2,972.7z M1599.4,974.9l0.8,1.3 l2.1-1.2l-0.8-1.3L1599.4,974.9z M1595.6,977.1l0.8,1.3l2.1-1.2l-0.8-1.3L1595.6,977.1z M1614.7,966l0.8,1.3l2.1-1.2l-0.8-1.3 L1614.7,966z M1610.9,968.2l0.8,1.3l2.1-1.2l-0.8-1.3L1610.9,968.2z M1607.1,970.4l0.8,1.3l2.1-1.2l-0.8-1.3L1607.1,970.4z  M1609.5,947.2l0.8-1.3l-2.1-1.3l-0.8,1.3L1609.5,947.2z M1613.3,949.5l0.8-1.3l-2.1-1.3l-0.8,1.3L1613.3,949.5z M1617,951.7 l0.8-1.3l-2.1-1.3l-0.8,1.3L1617,951.7z M1598.3,940.5l0.8-1.3l-2.1-1.3l-0.8,1.3L1598.3,940.5z M1602,942.7l0.8-1.3l-2.1-1.3 l-0.8,1.3L1602,942.7z M1605.8,945l0.8-1.3l-2.1-1.3l-0.8,1.3L1605.8,945z M1587.1,933.7l0.8-1.3l-2.1-1.3l-0.8,1.3L1587.1,933.7z  M1590.8,936l0.8-1.3l-2.1-1.3l-0.8,1.3L1590.8,936z M1594.6,938.2l0.8-1.3l-2.1-1.3l-0.8,1.3L1594.6,938.2z M1575.9,927l0.8-1.3 l-2.1-1.3l-0.8,1.3L1575.9,927z M1579.6,929.2l0.8-1.3l-2.1-1.3l-0.8,1.3L1579.6,929.2z M1583.3,931.5l0.8-1.3l-2.1-1.3l-0.8,1.3 L1583.3,931.5z M1564.7,920.2l0.8-1.3l-2.1-1.3l-0.8,1.3L1564.7,920.2z M1568.4,922.5l0.8-1.3l-2.1-1.3l-0.8,1.3L1568.4,922.5z  M1572.1,924.7l0.8-1.3l-2.1-1.3l-0.8,1.3L1572.1,924.7z M1553.4,913.5l0.8-1.3l-2.1-1.3l-0.8,1.3L1553.4,913.5z M1557.2,915.7 l0.8-1.3l-2.1-1.3l-0.8,1.3L1557.2,915.7z M1560.9,918l0.8-1.3l-2.1-1.3l-0.8,1.3L1560.9,918z M1535,916.6l-0.8-1.3l-2.1,1.2 l0.8,1.3L1535,916.6z M1538.8,914.4l-0.8-1.3l-2.1,1.2l0.8,1.3L1538.8,914.4z M1542.6,912.2l-0.8-1.3l-2.1,1.2l0.8,1.3 L1542.6,912.2z M1523.6,923.2l-0.8-1.3l-2.1,1.2l0.8,1.3L1523.6,923.2z M1527.4,921l-0.8-1.3l-2.1,1.2l0.8,1.3L1527.4,921z  M1531.2,918.8l-0.8-1.3l-2.1,1.2l0.8,1.3L1531.2,918.8z M1512.2,929.9l-0.8-1.3l-2.1,1.2l0.8,1.3L1512.2,929.9z M1516,927.7 l-0.8-1.3l-2.1,1.2l0.8,1.3L1516,927.7z M1519.8,925.5l-0.8-1.3l-2.1,1.2l0.8,1.3L1519.8,925.5z M1500.8,936.5l-0.8-1.3l-2.1,1.2 l0.8,1.3L1500.8,936.5z M1504.6,934.3l-0.8-1.3l-2.1,1.2l0.8,1.3L1504.6,934.3z M1508.4,932.1l-0.8-1.3l-2.1,1.2l0.8,1.3 L1508.4,932.1z M1489.4,943.1l-0.8-1.3l-2.1,1.2l0.8,1.3L1489.4,943.1z M1493.2,940.9l-0.8-1.3l-2.1,1.2l0.8,1.3L1493.2,940.9z  M1497,938.7l-0.8-1.3l-2.1,1.2l0.8,1.3L1497,938.7z M1478.1,949.8l-0.8-1.3l-2.1,1.2l0.8,1.3L1478.1,949.8z M1481.9,947.5 l-0.8-1.3l-2.1,1.2l0.8,1.3L1481.9,947.5z M1485.6,945.3l-0.8-1.3l-2.1,1.2l0.8,1.3L1485.6,945.3z M1483.2,968.5l-0.8,1.3l2.1,1.3 l0.8-1.3L1483.2,968.5z M1479.5,966.2l-0.8,1.3l2.1,1.3l0.8-1.3L1479.5,966.2z M1475.8,964l-0.8,1.3l2.1,1.3l0.8-1.3L1475.8,964z  M1494.3,975.3l-0.8,1.3l2.1,1.3l0.8-1.3L1494.3,975.3z M1490.6,973l-0.8,1.3l2.1,1.3l0.8-1.3L1490.6,973z M1486.9,970.8l-0.8,1.3 l2.1,1.3l0.8-1.3L1486.9,970.8z M1505.3,982.1l-0.8,1.3l2.1,1.3l0.8-1.3L1505.3,982.1z M1501.7,979.8l-0.8,1.3l2.1,1.3l0.8-1.3 L1501.7,979.8z M1498,977.5l-0.8,1.3l2.1,1.3l0.8-1.3L1498,977.5z M1516.4,988.9l-0.8,1.3l2.1,1.3l0.8-1.3L1516.4,988.9z  M1512.7,986.6l-0.8,1.3l2.1,1.3l0.8-1.3L1512.7,986.6z M1509.1,984.3l-0.8,1.3l2.1,1.3l0.8-1.3L1509.1,984.3z M1527.5,995.7 l-0.8,1.3l2.1,1.3l0.8-1.3L1527.5,995.7z M1523.8,993.4l-0.8,1.3l2.1,1.3l0.8-1.3L1523.8,993.4z M1520.1,991.1l-0.8,1.3l2.1,1.3 l0.8-1.3L1520.1,991.1z M1538.6,1002.4l-0.8,1.3l2.1,1.3l0.8-1.3L1538.6,1002.4z M1534.9,1000.2l-0.8,1.3l2.1,1.3l0.8-1.3 L1534.9,1000.2z M1531.2,997.9l-0.8,1.3l2.1,1.3l0.8-1.3L1531.2,997.9z M1623.5,962.3l-0.8-1.3l-3.7,2.1l0.8,1.3L1623.5,962.3z  M1630,958.3c-0.1-0.1-0.2-0.1-0.4-0.2c-0.3-0.2-0.8-0.5-1.2-0.8c-0.9-0.5-1.8-1.1-1.8-1.1l-0.8,1.3c0,0,0.4,0.2,0.7,0.4 c0.2,0.1,0.4,0.2,0.5,0.3l0,0l0,0l0,0l0,0c0,0,0,0,0,0c0,0,0,0,0,0l-1.5,0.8l0.8,1.3L1630,958.3 C1630.1,958.4,1630.1,958.4,1630,958.3z M1620,952.3l-0.8,1.3l3.6,2.2l0.8-1.3L1620,952.3z M1549.3,909.7l-0.8,1.3l1.3,0.8 l0.8-1.3L1549.3,909.7z M1547,908.4c0,0-0.1,0-0.1,0.1c-0.1,0.1-0.3,0.2-0.4,0.3c-0.3,0.2-0.6,0.4-0.6,0.4l0.8,1.3 c0,0,0.1-0.1,0.3-0.1c0.1,0,0.1-0.1,0.2-0.1l0,0l0,0l0,0l0,0c0,0,0,0,0,0c0,0,0,0,0,0l0.5,0.3l0.8-1.3L1547,908.4 C1547.1,908.3,1547,908.3,1547,908.4z M1543.5,910.4l0.8,1.3l1.3-0.7l-0.8-1.3L1543.5,910.4z M1469.4,953.4l0.8,1.3l3.6-2.1 l-0.8-1.3L1469.4,953.4z M1463,957.3c0.1,0.1,0.2,0.1,0.4,0.2c0.3,0.2,0.8,0.5,1.2,0.8c0.9,0.5,1.8,1.1,1.8,1.1l0.8-1.3 c0,0-0.4-0.2-0.7-0.4c-0.2-0.1-0.4-0.2-0.5-0.3l0,0l0,0l0,0l0,0c0,0,0,0,0,0c0,0,0,0,0,0l1.4-0.8l-0.8-1.3L1463,957.3 C1462.9,957.2,1462.9,957.3,1463,957.3z M1472.8,963.4l0.8-1.3l-3.6-2.2l-0.8,1.3L1472.8,963.4z M1542.6,1006.3l0.8-1.3l-1.3-0.8 l-0.8,1.3L1542.6,1006.3z M1545,1007.6c0,0,0.1,0,0.1-0.1c0.1-0.1,0.3-0.2,0.4-0.3c0.3-0.2,0.6-0.4,0.6-0.4l-0.8-1.3 c0,0-0.1,0.1-0.3,0.1c-0.1,0-0.1,0.1-0.2,0.1l0,0l0,0l0,0l0,0c0,0,0,0,0,0c0,0,0,0,0,0l-0.5-0.3l-0.8,1.3L1545,1007.6 C1544.9,1007.7,1545,1007.7,1545,1007.6z M1548.5,1005.6l-0.8-1.3l-1.3,0.7l0.8,1.3L1548.5,1005.6z"></path><polygon fill="#202333" points="1720,386.3 1801,436 1885,387.3 1803,338  "></polygon><polygon fill="#202333" points="261,599.3 342,649 426,600.3 344,551  "></polygon><polygon fill="#202333" points="140,530.3 221,580 305,531.3 223,482  "></polygon><polygon fill="#202333" points="21,597.3 102,647 186,598.3 104,549  "></polygon><path fill="#202333" d="M356.3,499.1l0.8,1.3l-2.1,1.2l-0.8-1.3L356.3,499.1z M350.3,502.6l0.8,1.3l2.1-1.2l-0.8-1.3L350.3,502.6z  M346.5,504.8l0.8,1.3l2.1-1.2l-0.8-1.3L346.5,504.8z M365.7,493.7l0.8,1.3l2.1-1.2l-0.8-1.3L365.7,493.7z M361.8,495.9l0.8,1.3 l2.1-1.2l-0.8-1.3L361.8,495.9z M358,498.1l0.8,1.3l2.1-1.2l-0.8-1.3L358,498.1z M377.2,487l0.8,1.3l2.1-1.2l-0.8-1.3L377.2,487z  M373.3,489.2l0.8,1.3l2.1-1.2l-0.8-1.3L373.3,489.2z M369.5,491.4l0.8,1.3l2.1-1.2l-0.8-1.3L369.5,491.4z M388.7,480.3l0.8,1.3 l2.1-1.2l-0.8-1.3L388.7,480.3z M384.9,482.5l0.8,1.3l2.1-1.2l-0.8-1.3L384.9,482.5z M381,484.8l0.8,1.3l2.1-1.2l-0.8-1.3 L381,484.8z M400.2,473.6l0.8,1.3l2.1-1.2l-0.8-1.3L400.2,473.6z M396.4,475.9l0.8,1.3l2.1-1.2l-0.8-1.3L396.4,475.9z  M392.6,478.1l0.8,1.3l2.1-1.2l-0.8-1.3L392.6,478.1z M411.8,467l0.8,1.3l2.1-1.2l-0.8-1.3L411.8,467z M407.9,469.2l0.8,1.3 l2.1-1.2l-0.8-1.3L407.9,469.2z M404.1,471.4l0.8,1.3l2.1-1.2l-0.8-1.3L404.1,471.4z M406.5,448.2l0.8-1.3l-2.1-1.3l-0.8,1.3 L406.5,448.2z M410.3,450.5l0.8-1.3L409,448l-0.8,1.3L410.3,450.5z M414,452.7l0.8-1.3l-2.1-1.3l-0.8,1.3L414,452.7z M395.3,441.5 l0.8-1.3L394,439l-0.8,1.3L395.3,441.5z M399.1,443.7l0.8-1.3l-2.1-1.3l-0.8,1.3L399.1,443.7z M402.8,446l0.8-1.3l-2.1-1.3 l-0.8,1.3L402.8,446z M384.1,434.7l0.8-1.3l-2.1-1.3l-0.8,1.3L384.1,434.7z M387.8,437l0.8-1.3l-2.1-1.3l-0.8,1.3L387.8,437z  M391.6,439.2l0.8-1.3l-2.1-1.3l-0.8,1.3L391.6,439.2z M372.9,428l0.8-1.3l-2.1-1.3l-0.8,1.3L372.9,428z M376.6,430.2l0.8-1.3 l-2.1-1.3l-0.8,1.3L376.6,430.2z M380.3,432.5l0.8-1.3l-2.1-1.3l-0.8,1.3L380.3,432.5z M361.7,421.2l0.8-1.3l-2.1-1.3l-0.8,1.3 L361.7,421.2z M365.4,423.5l0.8-1.3l-2.1-1.3l-0.8,1.3L365.4,423.5z M369.1,425.7l0.8-1.3l-2.1-1.3l-0.8,1.3L369.1,425.7z  M350.4,414.5l0.8-1.3l-2.1-1.3l-0.8,1.3L350.4,414.5z M354.2,416.7l0.8-1.3l-2.1-1.3l-0.8,1.3L354.2,416.7z M357.9,419l0.8-1.3 l-2.1-1.3l-0.8,1.3L357.9,419z M332,417.6l-0.8-1.3l-2.1,1.2l0.8,1.3L332,417.6z M335.8,415.4l-0.8-1.3l-2.1,1.2l0.8,1.3 L335.8,415.4z M339.6,413.2l-0.8-1.3l-2.1,1.2l0.8,1.3L339.6,413.2z M320.6,424.2l-0.8-1.3l-2.1,1.2l0.8,1.3L320.6,424.2z  M324.4,422l-0.8-1.3l-2.1,1.2l0.8,1.3L324.4,422z M328.2,419.8l-0.8-1.3l-2.1,1.2l0.8,1.3L328.2,419.8z M309.2,430.9l-0.8-1.3 l-2.1,1.2l0.8,1.3L309.2,430.9z M313,428.7l-0.8-1.3l-2.1,1.2l0.8,1.3L313,428.7z M316.8,426.5l-0.8-1.3l-2.1,1.2l0.8,1.3 L316.8,426.5z M297.8,437.5l-0.8-1.3l-2.1,1.2l0.8,1.3L297.8,437.5z M301.6,435.3l-0.8-1.3l-2.1,1.2l0.8,1.3L301.6,435.3z  M305.4,433.1l-0.8-1.3l-2.1,1.2l0.8,1.3L305.4,433.1z M286.5,444.1l-0.8-1.3l-2.1,1.2l0.8,1.3L286.5,444.1z M290.2,441.9 l-0.8-1.3l-2.1,1.2l0.8,1.3L290.2,441.9z M294,439.7l-0.8-1.3l-2.1,1.2l0.8,1.3L294,439.7z M275.1,450.8l-0.8-1.3l-2.1,1.2 l0.8,1.3L275.1,450.8z M278.9,448.5l-0.8-1.3l-2.1,1.2l0.8,1.3L278.9,448.5z M282.6,446.3l-0.8-1.3l-2.1,1.2l0.8,1.3L282.6,446.3z  M280.2,469.5l-0.8,1.3l2.1,1.3l0.8-1.3L280.2,469.5z M276.5,467.2l-0.8,1.3l2.1,1.3l0.8-1.3L276.5,467.2z M272.8,465l-0.8,1.3 l2.1,1.3l0.8-1.3L272.8,465z M291.3,476.3l-0.8,1.3l2.1,1.3l0.8-1.3L291.3,476.3z M287.6,474l-0.8,1.3l2.1,1.3l0.8-1.3L287.6,474z  M283.9,471.8l-0.8,1.3l2.1,1.3l0.8-1.3L283.9,471.8z M302.3,483.1l-0.8,1.3l2.1,1.3l0.8-1.3L302.3,483.1z M298.7,480.8l-0.8,1.3 l2.1,1.3l0.8-1.3L298.7,480.8z M295,478.5l-0.8,1.3l2.1,1.3l0.8-1.3L295,478.5z M313.4,489.9l-0.8,1.3l2.1,1.3l0.8-1.3 L313.4,489.9z M309.7,487.6l-0.8,1.3l2.1,1.3l0.8-1.3L309.7,487.6z M306.1,485.3l-0.8,1.3l2.1,1.3l0.8-1.3L306.1,485.3z  M324.5,496.7l-0.8,1.3l2.1,1.3l0.8-1.3L324.5,496.7z M320.8,494.4l-0.8,1.3l2.1,1.3l0.8-1.3L320.8,494.4z M317.1,492.1l-0.8,1.3 l2.1,1.3l0.8-1.3L317.1,492.1z M335.6,503.4l-0.8,1.3l2.1,1.3l0.8-1.3L335.6,503.4z M331.9,501.2l-0.8,1.3l2.1,1.3l0.8-1.3 L331.9,501.2z M328.2,498.9l-0.8,1.3l2.1,1.3l0.8-1.3L328.2,498.9z M420.5,463.3l-0.8-1.3l-3.7,2.1l0.8,1.3L420.5,463.3z  M427,459.3c-0.1-0.1-0.2-0.1-0.4-0.2c-0.3-0.2-0.8-0.5-1.2-0.8c-0.9-0.5-1.8-1.1-1.8-1.1l-0.8,1.3c0,0,0.4,0.2,0.7,0.4 c0.2,0.1,0.4,0.2,0.5,0.3l0,0l0,0l0,0l0,0c0,0,0,0,0,0c0,0,0,0,0,0l-1.5,0.8l0.8,1.3L427,459.3C427.1,459.4,427.1,459.4,427,459.3 z M417,453.3l-0.8,1.3l3.6,2.2l0.8-1.3L417,453.3z M346.3,410.7l-0.8,1.3l1.3,0.8l0.8-1.3L346.3,410.7z M344,409.4 c0,0-0.1,0-0.1,0.1c-0.1,0.1-0.3,0.2-0.4,0.3c-0.3,0.2-0.6,0.4-0.6,0.4l0.8,1.3c0,0,0.1-0.1,0.3-0.1c0.1,0,0.1-0.1,0.2-0.1l0,0 l0,0l0,0l0,0c0,0,0,0,0,0c0,0,0,0,0,0l0.5,0.3l0.8-1.3L344,409.4C344.1,409.3,344,409.3,344,409.4z M340.5,411.4l0.8,1.3l1.3-0.7 l-0.8-1.3L340.5,411.4z M266.4,454.4l0.8,1.3l3.6-2.1l-0.8-1.3L266.4,454.4z M260,458.3c0.1,0.1,0.2,0.1,0.4,0.2 c0.3,0.2,0.8,0.5,1.2,0.8c0.9,0.5,1.8,1.1,1.8,1.1l0.8-1.3c0,0-0.4-0.2-0.7-0.4c-0.2-0.1-0.4-0.2-0.5-0.3l0,0l0,0l0,0l0,0 c0,0,0,0,0,0c0,0,0,0,0,0l1.4-0.8l-0.8-1.3L260,458.3C259.9,458.2,259.9,458.3,260,458.3z M269.8,464.4l0.8-1.3l-3.6-2.2l-0.8,1.3 L269.8,464.4z M339.6,507.3l0.8-1.3l-1.3-0.8l-0.8,1.3L339.6,507.3z M342,508.6c0,0,0.1,0,0.1-0.1c0.1-0.1,0.3-0.2,0.4-0.3 c0.3-0.2,0.6-0.4,0.6-0.4l-0.8-1.3c0,0-0.1,0.1-0.3,0.1c-0.1,0-0.1,0.1-0.2,0.1l0,0l0,0l0,0l0,0c0,0,0,0,0,0c0,0,0,0,0,0l-0.5-0.3 l-0.8,1.3L342,508.6C341.9,508.7,342,508.7,342,508.6z M345.5,506.6l-0.8-1.3l-1.3,0.7l0.8,1.3L345.5,506.6z"></path><path fill="#202333" d="M235.3,714.1l0.8,1.3l-2.1,1.2l-0.8-1.3L235.3,714.1z M229.3,717.6l0.8,1.3l2.1-1.2l-0.8-1.3L229.3,717.6z  M225.5,719.8l0.8,1.3l2.1-1.2l-0.8-1.3L225.5,719.8z M244.7,708.7l0.8,1.3l2.1-1.2l-0.8-1.3L244.7,708.7z M240.8,710.9l0.8,1.3 l2.1-1.2l-0.8-1.3L240.8,710.9z M237,713.1l0.8,1.3l2.1-1.2l-0.8-1.3L237,713.1z M256.2,702l0.8,1.3l2.1-1.2l-0.8-1.3L256.2,702z  M252.3,704.2l0.8,1.3l2.1-1.2l-0.8-1.3L252.3,704.2z M248.5,706.4l0.8,1.3l2.1-1.2l-0.8-1.3L248.5,706.4z M267.7,695.3l0.8,1.3 l2.1-1.2l-0.8-1.3L267.7,695.3z M263.9,697.5l0.8,1.3l2.1-1.2l-0.8-1.3L263.9,697.5z M260,699.8l0.8,1.3l2.1-1.2l-0.8-1.3 L260,699.8z M279.2,688.7l0.8,1.3l2.1-1.2l-0.8-1.3L279.2,688.7z M275.4,690.9l0.8,1.3l2.1-1.2l-0.8-1.3L275.4,690.9z  M271.6,693.1l0.8,1.3l2.1-1.2l-0.8-1.3L271.6,693.1z M290.8,682l0.8,1.3l2.1-1.2l-0.8-1.3L290.8,682z M286.9,684.2l0.8,1.3 l2.1-1.2l-0.8-1.3L286.9,684.2z M283.1,686.4l0.8,1.3l2.1-1.2l-0.8-1.3L283.1,686.4z M285.5,663.2l0.8-1.3l-2.1-1.3l-0.8,1.3 L285.5,663.2z M289.3,665.5l0.8-1.3L288,663l-0.8,1.3L289.3,665.5z M293,667.7l0.8-1.3l-2.1-1.3l-0.8,1.3L293,667.7z M274.3,656.5 l0.8-1.3L273,654l-0.8,1.3L274.3,656.5z M278.1,658.7l0.8-1.3l-2.1-1.3l-0.8,1.3L278.1,658.7z M281.8,661l0.8-1.3l-2.1-1.3 l-0.8,1.3L281.8,661z M263.1,649.7l0.8-1.3l-2.1-1.3l-0.8,1.3L263.1,649.7z M266.8,652l0.8-1.3l-2.1-1.3l-0.8,1.3L266.8,652z  M270.6,654.2l0.8-1.3l-2.1-1.3l-0.8,1.3L270.6,654.2z M251.9,643l0.8-1.3l-2.1-1.3l-0.8,1.3L251.9,643z M255.6,645.2l0.8-1.3 l-2.1-1.3l-0.8,1.3L255.6,645.2z M259.3,647.5l0.8-1.3l-2.1-1.3l-0.8,1.3L259.3,647.5z M240.7,636.2l0.8-1.3l-2.1-1.3l-0.8,1.3 L240.7,636.2z M244.4,638.5l0.8-1.3l-2.1-1.3l-0.8,1.3L244.4,638.5z M248.1,640.7l0.8-1.3l-2.1-1.3l-0.8,1.3L248.1,640.7z  M229.4,629.5l0.8-1.3l-2.1-1.3l-0.8,1.3L229.4,629.5z M233.2,631.7l0.8-1.3l-2.1-1.3l-0.8,1.3L233.2,631.7z M236.9,634l0.8-1.3 l-2.1-1.3l-0.8,1.3L236.9,634z M211,632.6l-0.8-1.3l-2.1,1.2l0.8,1.3L211,632.6z M214.8,630.4l-0.8-1.3l-2.1,1.2l0.8,1.3 L214.8,630.4z M218.6,628.2l-0.8-1.3l-2.1,1.2l0.8,1.3L218.6,628.2z M199.6,639.2l-0.8-1.3l-2.1,1.2l0.8,1.3L199.6,639.2z  M203.4,637l-0.8-1.3l-2.1,1.2l0.8,1.3L203.4,637z M207.2,634.8l-0.8-1.3l-2.1,1.2l0.8,1.3L207.2,634.8z M188.2,645.9l-0.8-1.3 l-2.1,1.2l0.8,1.3L188.2,645.9z M192,643.7l-0.8-1.3l-2.1,1.2l0.8,1.3L192,643.7z M195.8,641.5l-0.8-1.3l-2.1,1.2l0.8,1.3 L195.8,641.5z M176.8,652.5l-0.8-1.3l-2.1,1.2l0.8,1.3L176.8,652.5z M180.6,650.3l-0.8-1.3l-2.1,1.2l0.8,1.3L180.6,650.3z  M184.4,648.1l-0.8-1.3l-2.1,1.2l0.8,1.3L184.4,648.1z M165.5,659.1l-0.8-1.3l-2.1,1.2l0.8,1.3L165.5,659.1z M169.2,656.9 l-0.8-1.3l-2.1,1.2l0.8,1.3L169.2,656.9z M173,654.7l-0.8-1.3l-2.1,1.2l0.8,1.3L173,654.7z M154.1,665.8l-0.8-1.3l-2.1,1.2 l0.8,1.3L154.1,665.8z M157.9,663.5l-0.8-1.3l-2.1,1.2l0.8,1.3L157.9,663.5z M161.6,661.3l-0.8-1.3l-2.1,1.2l0.8,1.3L161.6,661.3z  M159.2,684.5l-0.8,1.3l2.1,1.3l0.8-1.3L159.2,684.5z M155.5,682.2l-0.8,1.3l2.1,1.3l0.8-1.3L155.5,682.2z M151.8,680l-0.8,1.3 l2.1,1.3l0.8-1.3L151.8,680z M170.3,691.3l-0.8,1.3l2.1,1.3l0.8-1.3L170.3,691.3z M166.6,689l-0.8,1.3l2.1,1.3l0.8-1.3L166.6,689z  M162.9,686.8l-0.8,1.3l2.1,1.3l0.8-1.3L162.9,686.8z M181.3,698.1l-0.8,1.3l2.1,1.3l0.8-1.3L181.3,698.1z M177.7,695.8l-0.8,1.3 l2.1,1.3l0.8-1.3L177.7,695.8z M174,693.5l-0.8,1.3l2.1,1.3l0.8-1.3L174,693.5z M192.4,704.9l-0.8,1.3l2.1,1.3l0.8-1.3 L192.4,704.9z M188.7,702.6l-0.8,1.3l2.1,1.3l0.8-1.3L188.7,702.6z M185.1,700.3l-0.8,1.3l2.1,1.3l0.8-1.3L185.1,700.3z  M203.5,711.7l-0.8,1.3l2.1,1.3l0.8-1.3L203.5,711.7z M199.8,709.4l-0.8,1.3l2.1,1.3l0.8-1.3L199.8,709.4z M196.1,707.1l-0.8,1.3 l2.1,1.3l0.8-1.3L196.1,707.1z M214.6,718.4l-0.8,1.3l2.1,1.3l0.8-1.3L214.6,718.4z M210.9,716.2l-0.8,1.3l2.1,1.3l0.8-1.3 L210.9,716.2z M207.2,713.9l-0.8,1.3l2.1,1.3l0.8-1.3L207.2,713.9z M299.5,678.3l-0.8-1.3l-3.7,2.1l0.8,1.3L299.5,678.3z  M306,674.3c-0.1-0.1-0.2-0.1-0.4-0.2c-0.3-0.2-0.8-0.5-1.2-0.8c-0.9-0.5-1.8-1.1-1.8-1.1l-0.8,1.3c0,0,0.4,0.2,0.7,0.4 c0.2,0.1,0.4,0.2,0.5,0.3l0,0l0,0l0,0l0,0c0,0,0,0,0,0c0,0,0,0,0,0l-1.5,0.8l0.8,1.3L306,674.3C306.1,674.4,306.1,674.4,306,674.3 z M296,668.3l-0.8,1.3l3.6,2.2l0.8-1.3L296,668.3z M225.3,625.7l-0.8,1.3l1.3,0.8l0.8-1.3L225.3,625.7z M223,624.4 c0,0-0.1,0-0.1,0.1c-0.1,0.1-0.3,0.2-0.4,0.3c-0.3,0.2-0.6,0.4-0.6,0.4l0.8,1.3c0,0,0.1-0.1,0.3-0.1c0.1,0,0.1-0.1,0.2-0.1l0,0 l0,0l0,0l0,0c0,0,0,0,0,0c0,0,0,0,0,0l0.5,0.3l0.8-1.3L223,624.4C223.1,624.3,223,624.3,223,624.4z M219.5,626.4l0.8,1.3l1.3-0.7 l-0.8-1.3L219.5,626.4z M145.4,669.4l0.8,1.3l3.6-2.1l-0.8-1.3L145.4,669.4z M139,673.3c0.1,0.1,0.2,0.1,0.4,0.2 c0.3,0.2,0.8,0.5,1.2,0.8c0.9,0.5,1.8,1.1,1.8,1.1l0.8-1.3c0,0-0.4-0.2-0.7-0.4c-0.2-0.1-0.4-0.2-0.5-0.3l0,0l0,0l0,0l0,0 c0,0,0,0,0,0c0,0,0,0,0,0l1.4-0.8l-0.8-1.3L139,673.3C138.9,673.2,138.9,673.3,139,673.3z M148.8,679.4l0.8-1.3l-3.6-2.2l-0.8,1.3 L148.8,679.4z M218.6,722.3l0.8-1.3l-1.3-0.8l-0.8,1.3L218.6,722.3z M221,723.6c0,0,0.1,0,0.1-0.1c0.1-0.1,0.3-0.2,0.4-0.3 c0.3-0.2,0.6-0.4,0.6-0.4l-0.8-1.3c0,0-0.1,0.1-0.3,0.1c-0.1,0-0.1,0.1-0.2,0.1l0,0l0,0l0,0l0,0c0,0,0,0,0,0c0,0,0,0,0,0l-0.5-0.3 l-0.8,1.3L221,723.6C220.9,723.7,221,723.7,221,723.6z M224.5,721.6l-0.8-1.3l-1.3,0.7l0.8,1.3L224.5,721.6z"></path><polygon fill="#202333" points="134,382.3 215,432 299,383.3 217,334  "></polygon><polygon fill="#202333" points="390,530.3 471,580 555,531.3 473,482  "></polygon><polygon fill="#202333" points="390,386.3 471,436 555,387.3 473,338  "></polygon></g></g></svg>